<svg xmlns="http://www.w3.org/2000/svg" width="1440" height="72" viewBox="0 0 1440 72">
<rect x="0" y="0" width="1440" height="72" fill="#ffffff" rx="0" />
<circle cx="48" cy="36" r="14" fill="#e6f4f4"/><circle cx="43.519999999999996" cy="34.6" r="1.9600000000000002" fill="#019A99"/><circle cx="52.480000000000004" cy="34.6" r="1.9600000000000002" fill="#019A99"/><path d="M 43.8 41.32 Q 48 44.4 52.2 41.32" stroke="#019A99" stroke-width="2" fill="none" stroke-linecap="round"/><text x="70" y="41" font-family="Inter, -apple-system, system-ui, sans-serif" font-size="15" font-weight="700" fill="#019A99" text-anchor="start" >ProfJohns</text><rect x="180" y="31" width="56" height="10" fill="#e5e5e5" rx="5" /><rect x="256" y="31" width="56" height="10" fill="#e5e5e5" rx="5" /><rect x="332" y="31" width="56" height="10" fill="#e5e5e5" rx="5" /><rect x="408" y="31" width="56" height="10" fill="#e5e5e5" rx="5" /><rect x="1180" y="17" width="92" height="38" fill="#ffffff" stroke="#e5e5e5" stroke-width="1" rx="8"/><text x="1226" y="41" font-family="Inter, -apple-system, system-ui, sans-serif" font-size="13" font-weight="500" fill="#171717" text-anchor="middle" >Sign in</text><rect x="1288" y="17" width="128" height="38" fill="#171717" rx="8" /><text x="1352" y="41" font-family="Inter, -apple-system, system-ui, sans-serif" font-size="13" font-weight="600" fill="#ffffff" text-anchor="middle" >Start researching</text><line x1="0" y1="71" x2="1440" y2="71" stroke="#e5e5e5" stroke-width="1"/></svg>