<svg xmlns="http://www.w3.org/2000/svg" width="1440" height="640" viewBox="0 0 1440 640">
<rect x="0" y="0" width="1440" height="640" fill="#ffffff" rx="0" />
<rect x="560" y="64" width="154.4" height="20" fill="#e6f4f4" rx="10" /><text x="637.2" y="77.5" font-family="Inter, -apple-system, system-ui, sans-serif" font-size="10" font-weight="600" fill="#019A99" text-anchor="middle" >VISUAL RESEARCH CANVAS</text><rect x="400" y="110" width="640" height="26" fill="#d4d4d4" rx="13" /><rect x="470" y="152" width="500" height="26" fill="#d4d4d4" rx="13" /><rect x="520" y="208" width="400" height="11" fill="#e5e5e5" rx="5" /><rect x="560" y="228" width="320" height="11" fill="#e5e5e5" rx="5" /><rect x="600" y="268" width="161.8" height="38" fill="#171717" rx="8" /><text x="680.9" y="292" font-family="Inter, -apple-system, system-ui, sans-serif" font-size="13" font-weight="600" fill="#ffffff" text-anchor="middle" >Start researching</text><rect x="760" y="268" width="154.4" height="38" fill="#ffffff" stroke="#e5e5e5" stroke-width="1" rx="8"/><text x="837.2" y="292" font-family="Inter, -apple-system, system-ui, sans-serif" font-size="13" font-weight="500" fill="#171717" text-anchor="middle" >See how it works</text><rect x="120" y="350" width="1200" height="250" fill="#f5f5f5" rx="12" /><circle cx="142" cy="372" r="1" fill="#d4d4d4"/><circle cx="142" cy="394" r="1" fill="#d4d4d4"/><circle cx="142" cy="416" r="1" fill="#d4d4d4"/><circle cx="142" cy="438" r="1" fill="#d4d4d4"/><circle cx="142" cy="460" r="1" fill="#d4d4d4"/><circle cx="142" cy="482" r="1" fill="#d4d4d4"/><circle cx="142" cy="504" r="1" fill="#d4d4d4"/><circle cx="142" cy="526" r="1" fill="#d4d4d4"/><circle cx="142" cy="548" r="1" fill="#d4d4d4"/><circle cx="142" cy="570" r="1" fill="#d4d4d4"/><circle cx="142" cy="592" r="1" fill="#d4d4d4"/><circle cx="164" cy="372" r="1" fill="#d4d4d4"/><circle cx="164" cy="394" r="1" fill="#d4d4d4"/><circle cx="164" cy="416" r="1" fill="#d4d4d4"/><circle cx="164" cy="438" r="1" fill="#d4d4d4"/><circle cx="164" cy="460" r="1" fill="#d4d4d4"/><circle cx="164" cy="482" r="1" fill="#d4d4d4"/><circle cx="164" cy="504" r="1" fill="#d4d4d4"/><circle cx="164" cy="526" r="1" fill="#d4d4d4"/><circle cx="164" cy="548" r="1" fill="#d4d4d4"/><circle cx="164" cy="570" r="1" fill="#d4d4d4"/><circle cx="164" cy="592" r="1" fill="#d4d4d4"/><circle cx="186" cy="372" r="1" fill="#d4d4d4"/><circle cx="186" cy="394" r="1" fill="#d4d4d4"/><circle cx="186" cy="416" r="1" fill="#d4d4d4"/><circle cx="186" cy="438" r="1" fill="#d4d4d4"/><circle cx="186" cy="460" r="1" fill="#d4d4d4"/><circle cx="186" cy="482" r="1" fill="#d4d4d4"/><circle cx="186" cy="504" r="1" fill="#d4d4d4"/><circle cx="186" cy="526" r="1" fill="#d4d4d4"/><circle cx="186" cy="548" r="1" fill="#d4d4d4"/><circle cx="186" cy="570" r="1" fill="#d4d4d4"/><circle cx="186" cy="592" r="1" fill="#d4d4d4"/><circle cx="208" cy="372" r="1" fill="#d4d4d4"/><circle cx="208" cy="394" r="1" fill="#d4d4d4"/><circle cx="208" cy="416" r="1" fill="#d4d4d4"/><circle cx="208" cy="438" r="1" fill="#d4d4d4"/><circle cx="208" cy="460" r="1" fill="#d4d4d4"/><circle cx="208" cy="482" r="1" fill="#d4d4d4"/><circle cx="208" cy="504" r="1" fill="#d4d4d4"/><circle cx="208" cy="526" r="1" fill="#d4d4d4"/><circle cx="208" cy="548" r="1" fill="#d4d4d4"/><circle cx="208" cy="570" r="1" fill="#d4d4d4"/><circle cx="208" cy="592" r="1" fill="#d4d4d4"/><circle cx="230" cy="372" r="1" fill="#d4d4d4"/><circle cx="230" cy="394" r="1" fill="#d4d4d4"/><circle cx="230" cy="416" r="1" fill="#d4d4d4"/><circle cx="230" cy="438" r="1" fill="#d4d4d4"/><circle cx="230" cy="460" r="1" fill="#d4d4d4"/><circle cx="230" cy="482" r="1" fill="#d4d4d4"/><circle cx="230" cy="504" r="1" fill="#d4d4d4"/><circle cx="230" cy="526" r="1" fill="#d4d4d4"/><circle cx="230" cy="548" r="1" fill="#d4d4d4"/><circle cx="230" cy="570" r="1" fill="#d4d4d4"/><circle cx="230" cy="592" r="1" fill="#d4d4d4"/><circle cx="252" cy="372" r="1" fill="#d4d4d4"/><circle cx="252" cy="394" r="1" fill="#d4d4d4"/><circle cx="252" cy="416" r="1" fill="#d4d4d4"/><circle cx="252" cy="438" r="1" fill="#d4d4d4"/><circle cx="252" cy="460" r="1" fill="#d4d4d4"/><circle cx="252" cy="482" r="1" fill="#d4d4d4"/><circle cx="252" cy="504" r="1" fill="#d4d4d4"/><circle cx="252" cy="526" r="1" fill="#d4d4d4"/><circle cx="252" cy="548" r="1" fill="#d4d4d4"/><circle cx="252" cy="570" r="1" fill="#d4d4d4"/><circle cx="252" cy="592" r="1" fill="#d4d4d4"/><circle cx="274" cy="372" r="1" fill="#d4d4d4"/><circle cx="274" cy="394" r="1" fill="#d4d4d4"/><circle cx="274" cy="416" r="1" fill="#d4d4d4"/><circle cx="274" cy="438" r="1" fill="#d4d4d4"/><circle cx="274" cy="460" r="1" fill="#d4d4d4"/><circle cx="274" cy="482" r="1" fill="#d4d4d4"/><circle cx="274" cy="504" r="1" fill="#d4d4d4"/><circle cx="274" cy="526" r="1" fill="#d4d4d4"/><circle cx="274" cy="548" r="1" fill="#d4d4d4"/><circle cx="274" cy="570" r="1" fill="#d4d4d4"/><circle cx="274" cy="592" r="1" fill="#d4d4d4"/><circle cx="296" cy="372" r="1" fill="#d4d4d4"/><circle cx="296" cy="394" r="1" fill="#d4d4d4"/><circle cx="296" cy="416" r="1" fill="#d4d4d4"/><circle cx="296" cy="438" r="1" fill="#d4d4d4"/><circle cx="296" cy="460" r="1" fill="#d4d4d4"/><circle cx="296" cy="482" r="1" fill="#d4d4d4"/><circle cx="296" cy="504" r="1" fill="#d4d4d4"/><circle cx="296" cy="526" r="1" fill="#d4d4d4"/><circle cx="296" cy="548" r="1" fill="#d4d4d4"/><circle cx="296" cy="570" r="1" fill="#d4d4d4"/><circle cx="296" cy="592" r="1" fill="#d4d4d4"/><circle cx="318" cy="372" r="1" fill="#d4d4d4"/><circle cx="318" cy="394" r="1" fill="#d4d4d4"/><circle cx="318" cy="416" r="1" fill="#d4d4d4"/><circle cx="318" cy="438" r="1" fill="#d4d4d4"/><circle cx="318" cy="460" r="1" fill="#d4d4d4"/><circle cx="318" cy="482" r="1" fill="#d4d4d4"/><circle cx="318" cy="504" r="1" fill="#d4d4d4"/><circle cx="318" cy="526" r="1" fill="#d4d4d4"/><circle cx="318" cy="548" r="1" fill="#d4d4d4"/><circle cx="318" cy="570" r="1" fill="#d4d4d4"/><circle cx="318" cy="592" r="1" fill="#d4d4d4"/><circle cx="340" cy="372" r="1" fill="#d4d4d4"/><circle cx="340" cy="394" r="1" fill="#d4d4d4"/><circle cx="340" cy="416" r="1" fill="#d4d4d4"/><circle cx="340" cy="438" r="1" fill="#d4d4d4"/><circle cx="340" cy="460" r="1" fill="#d4d4d4"/><circle cx="340" cy="482" r="1" fill="#d4d4d4"/><circle cx="340" cy="504" r="1" fill="#d4d4d4"/><circle cx="340" cy="526" r="1" fill="#d4d4d4"/><circle cx="340" cy="548" r="1" fill="#d4d4d4"/><circle cx="340" cy="570" r="1" fill="#d4d4d4"/><circle cx="340" cy="592" r="1" fill="#d4d4d4"/><circle cx="362" cy="372" r="1" fill="#d4d4d4"/><circle cx="362" cy="394" r="1" fill="#d4d4d4"/><circle cx="362" cy="416" r="1" fill="#d4d4d4"/><circle cx="362" cy="438" r="1" fill="#d4d4d4"/><circle cx="362" cy="460" r="1" fill="#d4d4d4"/><circle cx="362" cy="482" r="1" fill="#d4d4d4"/><circle cx="362" cy="504" r="1" fill="#d4d4d4"/><circle cx="362" cy="526" r="1" fill="#d4d4d4"/><circle cx="362" cy="548" r="1" fill="#d4d4d4"/><circle cx="362" cy="570" r="1" fill="#d4d4d4"/><circle cx="362" cy="592" r="1" fill="#d4d4d4"/><circle cx="384" cy="372" r="1" fill="#d4d4d4"/><circle cx="384" cy="394" r="1" fill="#d4d4d4"/><circle cx="384" cy="416" r="1" fill="#d4d4d4"/><circle cx="384" cy="438" r="1" fill="#d4d4d4"/><circle cx="384" cy="460" r="1" fill="#d4d4d4"/><circle cx="384" cy="482" r="1" fill="#d4d4d4"/><circle cx="384" cy="504" r="1" fill="#d4d4d4"/><circle cx="384" cy="526" r="1" fill="#d4d4d4"/><circle cx="384" cy="548" r="1" fill="#d4d4d4"/><circle cx="384" cy="570" r="1" fill="#d4d4d4"/><circle cx="384" cy="592" r="1" fill="#d4d4d4"/><circle cx="406" cy="372" r="1" fill="#d4d4d4"/><circle cx="406" cy="394" r="1" fill="#d4d4d4"/><circle cx="406" cy="416" r="1" fill="#d4d4d4"/><circle cx="406" cy="438" r="1" fill="#d4d4d4"/><circle cx="406" cy="460" r="1" fill="#d4d4d4"/><circle cx="406" cy="482" r="1" fill="#d4d4d4"/><circle cx="406" cy="504" r="1" fill="#d4d4d4"/><circle cx="406" cy="526" r="1" fill="#d4d4d4"/><circle cx="406" cy="548" r="1" fill="#d4d4d4"/><circle cx="406" cy="570" r="1" fill="#d4d4d4"/><circle cx="406" cy="592" r="1" fill="#d4d4d4"/><circle cx="428" cy="372" r="1" fill="#d4d4d4"/><circle cx="428" cy="394" r="1" fill="#d4d4d4"/><circle cx="428" cy="416" r="1" fill="#d4d4d4"/><circle cx="428" cy="438" r="1" fill="#d4d4d4"/><circle cx="428" cy="460" r="1" fill="#d4d4d4"/><circle cx="428" cy="482" r="1" fill="#d4d4d4"/><circle cx="428" cy="504" r="1" fill="#d4d4d4"/><circle cx="428" cy="526" r="1" fill="#d4d4d4"/><circle cx="428" cy="548" r="1" fill="#d4d4d4"/><circle cx="428" cy="570" r="1" fill="#d4d4d4"/><circle cx="428" cy="592" r="1" fill="#d4d4d4"/><circle cx="450" cy="372" r="1" fill="#d4d4d4"/><circle cx="450" cy="394" r="1" fill="#d4d4d4"/><circle cx="450" cy="416" r="1" fill="#d4d4d4"/><circle cx="450" cy="438" r="1" fill="#d4d4d4"/><circle cx="450" cy="460" r="1" fill="#d4d4d4"/><circle cx="450" cy="482" r="1" fill="#d4d4d4"/><circle cx="450" cy="504" r="1" fill="#d4d4d4"/><circle cx="450" cy="526" r="1" fill="#d4d4d4"/><circle cx="450" cy="548" r="1" fill="#d4d4d4"/><circle cx="450" cy="570" r="1" fill="#d4d4d4"/><circle cx="450" cy="592" r="1" fill="#d4d4d4"/><circle cx="472" cy="372" r="1" fill="#d4d4d4"/><circle cx="472" cy="394" r="1" fill="#d4d4d4"/><circle cx="472" cy="416" r="1" fill="#d4d4d4"/><circle cx="472" cy="438" r="1" fill="#d4d4d4"/><circle cx="472" cy="460" r="1" fill="#d4d4d4"/><circle cx="472" cy="482" r="1" fill="#d4d4d4"/><circle cx="472" cy="504" r="1" fill="#d4d4d4"/><circle cx="472" cy="526" r="1" fill="#d4d4d4"/><circle cx="472" cy="548" r="1" fill="#d4d4d4"/><circle cx="472" cy="570" r="1" fill="#d4d4d4"/><circle cx="472" cy="592" r="1" fill="#d4d4d4"/><circle cx="494" cy="372" r="1" fill="#d4d4d4"/><circle cx="494" cy="394" r="1" fill="#d4d4d4"/><circle cx="494" cy="416" r="1" fill="#d4d4d4"/><circle cx="494" cy="438" r="1" fill="#d4d4d4"/><circle cx="494" cy="460" r="1" fill="#d4d4d4"/><circle cx="494" cy="482" r="1" fill="#d4d4d4"/><circle cx="494" cy="504" r="1" fill="#d4d4d4"/><circle cx="494" cy="526" r="1" fill="#d4d4d4"/><circle cx="494" cy="548" r="1" fill="#d4d4d4"/><circle cx="494" cy="570" r="1" fill="#d4d4d4"/><circle cx="494" cy="592" r="1" fill="#d4d4d4"/><circle cx="516" cy="372" r="1" fill="#d4d4d4"/><circle cx="516" cy="394" r="1" fill="#d4d4d4"/><circle cx="516" cy="416" r="1" fill="#d4d4d4"/><circle cx="516" cy="438" r="1" fill="#d4d4d4"/><circle cx="516" cy="460" r="1" fill="#d4d4d4"/><circle cx="516" cy="482" r="1" fill="#d4d4d4"/><circle cx="516" cy="504" r="1" fill="#d4d4d4"/><circle cx="516" cy="526" r="1" fill="#d4d4d4"/><circle cx="516" cy="548" r="1" fill="#d4d4d4"/><circle cx="516" cy="570" r="1" fill="#d4d4d4"/><circle cx="516" cy="592" r="1" fill="#d4d4d4"/><circle cx="538" cy="372" r="1" fill="#d4d4d4"/><circle cx="538" cy="394" r="1" fill="#d4d4d4"/><circle cx="538" cy="416" r="1" fill="#d4d4d4"/><circle cx="538" cy="438" r="1" fill="#d4d4d4"/><circle cx="538" cy="460" r="1" fill="#d4d4d4"/><circle cx="538" cy="482" r="1" fill="#d4d4d4"/><circle cx="538" cy="504" r="1" fill="#d4d4d4"/><circle cx="538" cy="526" r="1" fill="#d4d4d4"/><circle cx="538" cy="548" r="1" fill="#d4d4d4"/><circle cx="538" cy="570" r="1" fill="#d4d4d4"/><circle cx="538" cy="592" r="1" fill="#d4d4d4"/><circle cx="560" cy="372" r="1" fill="#d4d4d4"/><circle cx="560" cy="394" r="1" fill="#d4d4d4"/><circle cx="560" cy="416" r="1" fill="#d4d4d4"/><circle cx="560" cy="438" r="1" fill="#d4d4d4"/><circle cx="560" cy="460" r="1" fill="#d4d4d4"/><circle cx="560" cy="482" r="1" fill="#d4d4d4"/><circle cx="560" cy="504" r="1" fill="#d4d4d4"/><circle cx="560" cy="526" r="1" fill="#d4d4d4"/><circle cx="560" cy="548" r="1" fill="#d4d4d4"/><circle cx="560" cy="570" r="1" fill="#d4d4d4"/><circle cx="560" cy="592" r="1" fill="#d4d4d4"/><circle cx="582" cy="372" r="1" fill="#d4d4d4"/><circle cx="582" cy="394" r="1" fill="#d4d4d4"/><circle cx="582" cy="416" r="1" fill="#d4d4d4"/><circle cx="582" cy="438" r="1" fill="#d4d4d4"/><circle cx="582" cy="460" r="1" fill="#d4d4d4"/><circle cx="582" cy="482" r="1" fill="#d4d4d4"/><circle cx="582" cy="504" r="1" fill="#d4d4d4"/><circle cx="582" cy="526" r="1" fill="#d4d4d4"/><circle cx="582" cy="548" r="1" fill="#d4d4d4"/><circle cx="582" cy="570" r="1" fill="#d4d4d4"/><circle cx="582" cy="592" r="1" fill="#d4d4d4"/><circle cx="604" cy="372" r="1" fill="#d4d4d4"/><circle cx="604" cy="394" r="1" fill="#d4d4d4"/><circle cx="604" cy="416" r="1" fill="#d4d4d4"/><circle cx="604" cy="438" r="1" fill="#d4d4d4"/><circle cx="604" cy="460" r="1" fill="#d4d4d4"/><circle cx="604" cy="482" r="1" fill="#d4d4d4"/><circle cx="604" cy="504" r="1" fill="#d4d4d4"/><circle cx="604" cy="526" r="1" fill="#d4d4d4"/><circle cx="604" cy="548" r="1" fill="#d4d4d4"/><circle cx="604" cy="570" r="1" fill="#d4d4d4"/><circle cx="604" cy="592" r="1" fill="#d4d4d4"/><circle cx="626" cy="372" r="1" fill="#d4d4d4"/><circle cx="626" cy="394" r="1" fill="#d4d4d4"/><circle cx="626" cy="416" r="1" fill="#d4d4d4"/><circle cx="626" cy="438" r="1" fill="#d4d4d4"/><circle cx="626" cy="460" r="1" fill="#d4d4d4"/><circle cx="626" cy="482" r="1" fill="#d4d4d4"/><circle cx="626" cy="504" r="1" fill="#d4d4d4"/><circle cx="626" cy="526" r="1" fill="#d4d4d4"/><circle cx="626" cy="548" r="1" fill="#d4d4d4"/><circle cx="626" cy="570" r="1" fill="#d4d4d4"/><circle cx="626" cy="592" r="1" fill="#d4d4d4"/><circle cx="648" cy="372" r="1" fill="#d4d4d4"/><circle cx="648" cy="394" r="1" fill="#d4d4d4"/><circle cx="648" cy="416" r="1" fill="#d4d4d4"/><circle cx="648" cy="438" r="1" fill="#d4d4d4"/><circle cx="648" cy="460" r="1" fill="#d4d4d4"/><circle cx="648" cy="482" r="1" fill="#d4d4d4"/><circle cx="648" cy="504" r="1" fill="#d4d4d4"/><circle cx="648" cy="526" r="1" fill="#d4d4d4"/><circle cx="648" cy="548" r="1" fill="#d4d4d4"/><circle cx="648" cy="570" r="1" fill="#d4d4d4"/><circle cx="648" cy="592" r="1" fill="#d4d4d4"/><circle cx="670" cy="372" r="1" fill="#d4d4d4"/><circle cx="670" cy="394" r="1" fill="#d4d4d4"/><circle cx="670" cy="416" r="1" fill="#d4d4d4"/><circle cx="670" cy="438" r="1" fill="#d4d4d4"/><circle cx="670" cy="460" r="1" fill="#d4d4d4"/><circle cx="670" cy="482" r="1" fill="#d4d4d4"/><circle cx="670" cy="504" r="1" fill="#d4d4d4"/><circle cx="670" cy="526" r="1" fill="#d4d4d4"/><circle cx="670" cy="548" r="1" fill="#d4d4d4"/><circle cx="670" cy="570" r="1" fill="#d4d4d4"/><circle cx="670" cy="592" r="1" fill="#d4d4d4"/><circle cx="692" cy="372" r="1" fill="#d4d4d4"/><circle cx="692" cy="394" r="1" fill="#d4d4d4"/><circle cx="692" cy="416" r="1" fill="#d4d4d4"/><circle cx="692" cy="438" r="1" fill="#d4d4d4"/><circle cx="692" cy="460" r="1" fill="#d4d4d4"/><circle cx="692" cy="482" r="1" fill="#d4d4d4"/><circle cx="692" cy="504" r="1" fill="#d4d4d4"/><circle cx="692" cy="526" r="1" fill="#d4d4d4"/><circle cx="692" cy="548" r="1" fill="#d4d4d4"/><circle cx="692" cy="570" r="1" fill="#d4d4d4"/><circle cx="692" cy="592" r="1" fill="#d4d4d4"/><circle cx="714" cy="372" r="1" fill="#d4d4d4"/><circle cx="714" cy="394" r="1" fill="#d4d4d4"/><circle cx="714" cy="416" r="1" fill="#d4d4d4"/><circle cx="714" cy="438" r="1" fill="#d4d4d4"/><circle cx="714" cy="460" r="1" fill="#d4d4d4"/><circle cx="714" cy="482" r="1" fill="#d4d4d4"/><circle cx="714" cy="504" r="1" fill="#d4d4d4"/><circle cx="714" cy="526" r="1" fill="#d4d4d4"/><circle cx="714" cy="548" r="1" fill="#d4d4d4"/><circle cx="714" cy="570" r="1" fill="#d4d4d4"/><circle cx="714" cy="592" r="1" fill="#d4d4d4"/><circle cx="736" cy="372" r="1" fill="#d4d4d4"/><circle cx="736" cy="394" r="1" fill="#d4d4d4"/><circle cx="736" cy="416" r="1" fill="#d4d4d4"/><circle cx="736" cy="438" r="1" fill="#d4d4d4"/><circle cx="736" cy="460" r="1" fill="#d4d4d4"/><circle cx="736" cy="482" r="1" fill="#d4d4d4"/><circle cx="736" cy="504" r="1" fill="#d4d4d4"/><circle cx="736" cy="526" r="1" fill="#d4d4d4"/><circle cx="736" cy="548" r="1" fill="#d4d4d4"/><circle cx="736" cy="570" r="1" fill="#d4d4d4"/><circle cx="736" cy="592" r="1" fill="#d4d4d4"/><circle cx="758" cy="372" r="1" fill="#d4d4d4"/><circle cx="758" cy="394" r="1" fill="#d4d4d4"/><circle cx="758" cy="416" r="1" fill="#d4d4d4"/><circle cx="758" cy="438" r="1" fill="#d4d4d4"/><circle cx="758" cy="460" r="1" fill="#d4d4d4"/><circle cx="758" cy="482" r="1" fill="#d4d4d4"/><circle cx="758" cy="504" r="1" fill="#d4d4d4"/><circle cx="758" cy="526" r="1" fill="#d4d4d4"/><circle cx="758" cy="548" r="1" fill="#d4d4d4"/><circle cx="758" cy="570" r="1" fill="#d4d4d4"/><circle cx="758" cy="592" r="1" fill="#d4d4d4"/><circle cx="780" cy="372" r="1" fill="#d4d4d4"/><circle cx="780" cy="394" r="1" fill="#d4d4d4"/><circle cx="780" cy="416" r="1" fill="#d4d4d4"/><circle cx="780" cy="438" r="1" fill="#d4d4d4"/><circle cx="780" cy="460" r="1" fill="#d4d4d4"/><circle cx="780" cy="482" r="1" fill="#d4d4d4"/><circle cx="780" cy="504" r="1" fill="#d4d4d4"/><circle cx="780" cy="526" r="1" fill="#d4d4d4"/><circle cx="780" cy="548" r="1" fill="#d4d4d4"/><circle cx="780" cy="570" r="1" fill="#d4d4d4"/><circle cx="780" cy="592" r="1" fill="#d4d4d4"/><circle cx="802" cy="372" r="1" fill="#d4d4d4"/><circle cx="802" cy="394" r="1" fill="#d4d4d4"/><circle cx="802" cy="416" r="1" fill="#d4d4d4"/><circle cx="802" cy="438" r="1" fill="#d4d4d4"/><circle cx="802" cy="460" r="1" fill="#d4d4d4"/><circle cx="802" cy="482" r="1" fill="#d4d4d4"/><circle cx="802" cy="504" r="1" fill="#d4d4d4"/><circle cx="802" cy="526" r="1" fill="#d4d4d4"/><circle cx="802" cy="548" r="1" fill="#d4d4d4"/><circle cx="802" cy="570" r="1" fill="#d4d4d4"/><circle cx="802" cy="592" r="1" fill="#d4d4d4"/><circle cx="824" cy="372" r="1" fill="#d4d4d4"/><circle cx="824" cy="394" r="1" fill="#d4d4d4"/><circle cx="824" cy="416" r="1" fill="#d4d4d4"/><circle cx="824" cy="438" r="1" fill="#d4d4d4"/><circle cx="824" cy="460" r="1" fill="#d4d4d4"/><circle cx="824" cy="482" r="1" fill="#d4d4d4"/><circle cx="824" cy="504" r="1" fill="#d4d4d4"/><circle cx="824" cy="526" r="1" fill="#d4d4d4"/><circle cx="824" cy="548" r="1" fill="#d4d4d4"/><circle cx="824" cy="570" r="1" fill="#d4d4d4"/><circle cx="824" cy="592" r="1" fill="#d4d4d4"/><circle cx="846" cy="372" r="1" fill="#d4d4d4"/><circle cx="846" cy="394" r="1" fill="#d4d4d4"/><circle cx="846" cy="416" r="1" fill="#d4d4d4"/><circle cx="846" cy="438" r="1" fill="#d4d4d4"/><circle cx="846" cy="460" r="1" fill="#d4d4d4"/><circle cx="846" cy="482" r="1" fill="#d4d4d4"/><circle cx="846" cy="504" r="1" fill="#d4d4d4"/><circle cx="846" cy="526" r="1" fill="#d4d4d4"/><circle cx="846" cy="548" r="1" fill="#d4d4d4"/><circle cx="846" cy="570" r="1" fill="#d4d4d4"/><circle cx="846" cy="592" r="1" fill="#d4d4d4"/><circle cx="868" cy="372" r="1" fill="#d4d4d4"/><circle cx="868" cy="394" r="1" fill="#d4d4d4"/><circle cx="868" cy="416" r="1" fill="#d4d4d4"/><circle cx="868" cy="438" r="1" fill="#d4d4d4"/><circle cx="868" cy="460" r="1" fill="#d4d4d4"/><circle cx="868" cy="482" r="1" fill="#d4d4d4"/><circle cx="868" cy="504" r="1" fill="#d4d4d4"/><circle cx="868" cy="526" r="1" fill="#d4d4d4"/><circle cx="868" cy="548" r="1" fill="#d4d4d4"/><circle cx="868" cy="570" r="1" fill="#d4d4d4"/><circle cx="868" cy="592" r="1" fill="#d4d4d4"/><circle cx="890" cy="372" r="1" fill="#d4d4d4"/><circle cx="890" cy="394" r="1" fill="#d4d4d4"/><circle cx="890" cy="416" r="1" fill="#d4d4d4"/><circle cx="890" cy="438" r="1" fill="#d4d4d4"/><circle cx="890" cy="460" r="1" fill="#d4d4d4"/><circle cx="890" cy="482" r="1" fill="#d4d4d4"/><circle cx="890" cy="504" r="1" fill="#d4d4d4"/><circle cx="890" cy="526" r="1" fill="#d4d4d4"/><circle cx="890" cy="548" r="1" fill="#d4d4d4"/><circle cx="890" cy="570" r="1" fill="#d4d4d4"/><circle cx="890" cy="592" r="1" fill="#d4d4d4"/><circle cx="912" cy="372" r="1" fill="#d4d4d4"/><circle cx="912" cy="394" r="1" fill="#d4d4d4"/><circle cx="912" cy="416" r="1" fill="#d4d4d4"/><circle cx="912" cy="438" r="1" fill="#d4d4d4"/><circle cx="912" cy="460" r="1" fill="#d4d4d4"/><circle cx="912" cy="482" r="1" fill="#d4d4d4"/><circle cx="912" cy="504" r="1" fill="#d4d4d4"/><circle cx="912" cy="526" r="1" fill="#d4d4d4"/><circle cx="912" cy="548" r="1" fill="#d4d4d4"/><circle cx="912" cy="570" r="1" fill="#d4d4d4"/><circle cx="912" cy="592" r="1" fill="#d4d4d4"/><circle cx="934" cy="372" r="1" fill="#d4d4d4"/><circle cx="934" cy="394" r="1" fill="#d4d4d4"/><circle cx="934" cy="416" r="1" fill="#d4d4d4"/><circle cx="934" cy="438" r="1" fill="#d4d4d4"/><circle cx="934" cy="460" r="1" fill="#d4d4d4"/><circle cx="934" cy="482" r="1" fill="#d4d4d4"/><circle cx="934" cy="504" r="1" fill="#d4d4d4"/><circle cx="934" cy="526" r="1" fill="#d4d4d4"/><circle cx="934" cy="548" r="1" fill="#d4d4d4"/><circle cx="934" cy="570" r="1" fill="#d4d4d4"/><circle cx="934" cy="592" r="1" fill="#d4d4d4"/><circle cx="956" cy="372" r="1" fill="#d4d4d4"/><circle cx="956" cy="394" r="1" fill="#d4d4d4"/><circle cx="956" cy="416" r="1" fill="#d4d4d4"/><circle cx="956" cy="438" r="1" fill="#d4d4d4"/><circle cx="956" cy="460" r="1" fill="#d4d4d4"/><circle cx="956" cy="482" r="1" fill="#d4d4d4"/><circle cx="956" cy="504" r="1" fill="#d4d4d4"/><circle cx="956" cy="526" r="1" fill="#d4d4d4"/><circle cx="956" cy="548" r="1" fill="#d4d4d4"/><circle cx="956" cy="570" r="1" fill="#d4d4d4"/><circle cx="956" cy="592" r="1" fill="#d4d4d4"/><circle cx="978" cy="372" r="1" fill="#d4d4d4"/><circle cx="978" cy="394" r="1" fill="#d4d4d4"/><circle cx="978" cy="416" r="1" fill="#d4d4d4"/><circle cx="978" cy="438" r="1" fill="#d4d4d4"/><circle cx="978" cy="460" r="1" fill="#d4d4d4"/><circle cx="978" cy="482" r="1" fill="#d4d4d4"/><circle cx="978" cy="504" r="1" fill="#d4d4d4"/><circle cx="978" cy="526" r="1" fill="#d4d4d4"/><circle cx="978" cy="548" r="1" fill="#d4d4d4"/><circle cx="978" cy="570" r="1" fill="#d4d4d4"/><circle cx="978" cy="592" r="1" fill="#d4d4d4"/><circle cx="1000" cy="372" r="1" fill="#d4d4d4"/><circle cx="1000" cy="394" r="1" fill="#d4d4d4"/><circle cx="1000" cy="416" r="1" fill="#d4d4d4"/><circle cx="1000" cy="438" r="1" fill="#d4d4d4"/><circle cx="1000" cy="460" r="1" fill="#d4d4d4"/><circle cx="1000" cy="482" r="1" fill="#d4d4d4"/><circle cx="1000" cy="504" r="1" fill="#d4d4d4"/><circle cx="1000" cy="526" r="1" fill="#d4d4d4"/><circle cx="1000" cy="548" r="1" fill="#d4d4d4"/><circle cx="1000" cy="570" r="1" fill="#d4d4d4"/><circle cx="1000" cy="592" r="1" fill="#d4d4d4"/><circle cx="1022" cy="372" r="1" fill="#d4d4d4"/><circle cx="1022" cy="394" r="1" fill="#d4d4d4"/><circle cx="1022" cy="416" r="1" fill="#d4d4d4"/><circle cx="1022" cy="438" r="1" fill="#d4d4d4"/><circle cx="1022" cy="460" r="1" fill="#d4d4d4"/><circle cx="1022" cy="482" r="1" fill="#d4d4d4"/><circle cx="1022" cy="504" r="1" fill="#d4d4d4"/><circle cx="1022" cy="526" r="1" fill="#d4d4d4"/><circle cx="1022" cy="548" r="1" fill="#d4d4d4"/><circle cx="1022" cy="570" r="1" fill="#d4d4d4"/><circle cx="1022" cy="592" r="1" fill="#d4d4d4"/><circle cx="1044" cy="372" r="1" fill="#d4d4d4"/><circle cx="1044" cy="394" r="1" fill="#d4d4d4"/><circle cx="1044" cy="416" r="1" fill="#d4d4d4"/><circle cx="1044" cy="438" r="1" fill="#d4d4d4"/><circle cx="1044" cy="460" r="1" fill="#d4d4d4"/><circle cx="1044" cy="482" r="1" fill="#d4d4d4"/><circle cx="1044" cy="504" r="1" fill="#d4d4d4"/><circle cx="1044" cy="526" r="1" fill="#d4d4d4"/><circle cx="1044" cy="548" r="1" fill="#d4d4d4"/><circle cx="1044" cy="570" r="1" fill="#d4d4d4"/><circle cx="1044" cy="592" r="1" fill="#d4d4d4"/><circle cx="1066" cy="372" r="1" fill="#d4d4d4"/><circle cx="1066" cy="394" r="1" fill="#d4d4d4"/><circle cx="1066" cy="416" r="1" fill="#d4d4d4"/><circle cx="1066" cy="438" r="1" fill="#d4d4d4"/><circle cx="1066" cy="460" r="1" fill="#d4d4d4"/><circle cx="1066" cy="482" r="1" fill="#d4d4d4"/><circle cx="1066" cy="504" r="1" fill="#d4d4d4"/><circle cx="1066" cy="526" r="1" fill="#d4d4d4"/><circle cx="1066" cy="548" r="1" fill="#d4d4d4"/><circle cx="1066" cy="570" r="1" fill="#d4d4d4"/><circle cx="1066" cy="592" r="1" fill="#d4d4d4"/><circle cx="1088" cy="372" r="1" fill="#d4d4d4"/><circle cx="1088" cy="394" r="1" fill="#d4d4d4"/><circle cx="1088" cy="416" r="1" fill="#d4d4d4"/><circle cx="1088" cy="438" r="1" fill="#d4d4d4"/><circle cx="1088" cy="460" r="1" fill="#d4d4d4"/><circle cx="1088" cy="482" r="1" fill="#d4d4d4"/><circle cx="1088" cy="504" r="1" fill="#d4d4d4"/><circle cx="1088" cy="526" r="1" fill="#d4d4d4"/><circle cx="1088" cy="548" r="1" fill="#d4d4d4"/><circle cx="1088" cy="570" r="1" fill="#d4d4d4"/><circle cx="1088" cy="592" r="1" fill="#d4d4d4"/><circle cx="1110" cy="372" r="1" fill="#d4d4d4"/><circle cx="1110" cy="394" r="1" fill="#d4d4d4"/><circle cx="1110" cy="416" r="1" fill="#d4d4d4"/><circle cx="1110" cy="438" r="1" fill="#d4d4d4"/><circle cx="1110" cy="460" r="1" fill="#d4d4d4"/><circle cx="1110" cy="482" r="1" fill="#d4d4d4"/><circle cx="1110" cy="504" r="1" fill="#d4d4d4"/><circle cx="1110" cy="526" r="1" fill="#d4d4d4"/><circle cx="1110" cy="548" r="1" fill="#d4d4d4"/><circle cx="1110" cy="570" r="1" fill="#d4d4d4"/><circle cx="1110" cy="592" r="1" fill="#d4d4d4"/><circle cx="1132" cy="372" r="1" fill="#d4d4d4"/><circle cx="1132" cy="394" r="1" fill="#d4d4d4"/><circle cx="1132" cy="416" r="1" fill="#d4d4d4"/><circle cx="1132" cy="438" r="1" fill="#d4d4d4"/><circle cx="1132" cy="460" r="1" fill="#d4d4d4"/><circle cx="1132" cy="482" r="1" fill="#d4d4d4"/><circle cx="1132" cy="504" r="1" fill="#d4d4d4"/><circle cx="1132" cy="526" r="1" fill="#d4d4d4"/><circle cx="1132" cy="548" r="1" fill="#d4d4d4"/><circle cx="1132" cy="570" r="1" fill="#d4d4d4"/><circle cx="1132" cy="592" r="1" fill="#d4d4d4"/><circle cx="1154" cy="372" r="1" fill="#d4d4d4"/><circle cx="1154" cy="394" r="1" fill="#d4d4d4"/><circle cx="1154" cy="416" r="1" fill="#d4d4d4"/><circle cx="1154" cy="438" r="1" fill="#d4d4d4"/><circle cx="1154" cy="460" r="1" fill="#d4d4d4"/><circle cx="1154" cy="482" r="1" fill="#d4d4d4"/><circle cx="1154" cy="504" r="1" fill="#d4d4d4"/><circle cx="1154" cy="526" r="1" fill="#d4d4d4"/><circle cx="1154" cy="548" r="1" fill="#d4d4d4"/><circle cx="1154" cy="570" r="1" fill="#d4d4d4"/><circle cx="1154" cy="592" r="1" fill="#d4d4d4"/><circle cx="1176" cy="372" r="1" fill="#d4d4d4"/><circle cx="1176" cy="394" r="1" fill="#d4d4d4"/><circle cx="1176" cy="416" r="1" fill="#d4d4d4"/><circle cx="1176" cy="438" r="1" fill="#d4d4d4"/><circle cx="1176" cy="460" r="1" fill="#d4d4d4"/><circle cx="1176" cy="482" r="1" fill="#d4d4d4"/><circle cx="1176" cy="504" r="1" fill="#d4d4d4"/><circle cx="1176" cy="526" r="1" fill="#d4d4d4"/><circle cx="1176" cy="548" r="1" fill="#d4d4d4"/><circle cx="1176" cy="570" r="1" fill="#d4d4d4"/><circle cx="1176" cy="592" r="1" fill="#d4d4d4"/><circle cx="1198" cy="372" r="1" fill="#d4d4d4"/><circle cx="1198" cy="394" r="1" fill="#d4d4d4"/><circle cx="1198" cy="416" r="1" fill="#d4d4d4"/><circle cx="1198" cy="438" r="1" fill="#d4d4d4"/><circle cx="1198" cy="460" r="1" fill="#d4d4d4"/><circle cx="1198" cy="482" r="1" fill="#d4d4d4"/><circle cx="1198" cy="504" r="1" fill="#d4d4d4"/><circle cx="1198" cy="526" r="1" fill="#d4d4d4"/><circle cx="1198" cy="548" r="1" fill="#d4d4d4"/><circle cx="1198" cy="570" r="1" fill="#d4d4d4"/><circle cx="1198" cy="592" r="1" fill="#d4d4d4"/><circle cx="1220" cy="372" r="1" fill="#d4d4d4"/><circle cx="1220" cy="394" r="1" fill="#d4d4d4"/><circle cx="1220" cy="416" r="1" fill="#d4d4d4"/><circle cx="1220" cy="438" r="1" fill="#d4d4d4"/><circle cx="1220" cy="460" r="1" fill="#d4d4d4"/><circle cx="1220" cy="482" r="1" fill="#d4d4d4"/><circle cx="1220" cy="504" r="1" fill="#d4d4d4"/><circle cx="1220" cy="526" r="1" fill="#d4d4d4"/><circle cx="1220" cy="548" r="1" fill="#d4d4d4"/><circle cx="1220" cy="570" r="1" fill="#d4d4d4"/><circle cx="1220" cy="592" r="1" fill="#d4d4d4"/><circle cx="1242" cy="372" r="1" fill="#d4d4d4"/><circle cx="1242" cy="394" r="1" fill="#d4d4d4"/><circle cx="1242" cy="416" r="1" fill="#d4d4d4"/><circle cx="1242" cy="438" r="1" fill="#d4d4d4"/><circle cx="1242" cy="460" r="1" fill="#d4d4d4"/><circle cx="1242" cy="482" r="1" fill="#d4d4d4"/><circle cx="1242" cy="504" r="1" fill="#d4d4d4"/><circle cx="1242" cy="526" r="1" fill="#d4d4d4"/><circle cx="1242" cy="548" r="1" fill="#d4d4d4"/><circle cx="1242" cy="570" r="1" fill="#d4d4d4"/><circle cx="1242" cy="592" r="1" fill="#d4d4d4"/><circle cx="1264" cy="372" r="1" fill="#d4d4d4"/><circle cx="1264" cy="394" r="1" fill="#d4d4d4"/><circle cx="1264" cy="416" r="1" fill="#d4d4d4"/><circle cx="1264" cy="438" r="1" fill="#d4d4d4"/><circle cx="1264" cy="460" r="1" fill="#d4d4d4"/><circle cx="1264" cy="482" r="1" fill="#d4d4d4"/><circle cx="1264" cy="504" r="1" fill="#d4d4d4"/><circle cx="1264" cy="526" r="1" fill="#d4d4d4"/><circle cx="1264" cy="548" r="1" fill="#d4d4d4"/><circle cx="1264" cy="570" r="1" fill="#d4d4d4"/><circle cx="1264" cy="592" r="1" fill="#d4d4d4"/><circle cx="1286" cy="372" r="1" fill="#d4d4d4"/><circle cx="1286" cy="394" r="1" fill="#d4d4d4"/><circle cx="1286" cy="416" r="1" fill="#d4d4d4"/><circle cx="1286" cy="438" r="1" fill="#d4d4d4"/><circle cx="1286" cy="460" r="1" fill="#d4d4d4"/><circle cx="1286" cy="482" r="1" fill="#d4d4d4"/><circle cx="1286" cy="504" r="1" fill="#d4d4d4"/><circle cx="1286" cy="526" r="1" fill="#d4d4d4"/><circle cx="1286" cy="548" r="1" fill="#d4d4d4"/><circle cx="1286" cy="570" r="1" fill="#d4d4d4"/><circle cx="1286" cy="592" r="1" fill="#d4d4d4"/><circle cx="1308" cy="372" r="1" fill="#d4d4d4"/><circle cx="1308" cy="394" r="1" fill="#d4d4d4"/><circle cx="1308" cy="416" r="1" fill="#d4d4d4"/><circle cx="1308" cy="438" r="1" fill="#d4d4d4"/><circle cx="1308" cy="460" r="1" fill="#d4d4d4"/><circle cx="1308" cy="482" r="1" fill="#d4d4d4"/><circle cx="1308" cy="504" r="1" fill="#d4d4d4"/><circle cx="1308" cy="526" r="1" fill="#d4d4d4"/><circle cx="1308" cy="548" r="1" fill="#d4d4d4"/><circle cx="1308" cy="570" r="1" fill="#d4d4d4"/><circle cx="1308" cy="592" r="1" fill="#d4d4d4"/><circle cx="197" cy="399" r="2" fill="#d4d4d4"/><circle cx="203" cy="399" r="2" fill="#d4d4d4"/><circle cx="214" cy="399" r="4" fill="#3d74c6"/><text x="224" y="403" font-family="Inter, -apple-system, system-ui, sans-serif" font-size="11" font-weight="600" fill="#737373" text-anchor="start" >Sources</text><rect x="192" y="410" width="190" height="96" fill="#ffffff" stroke="#e5e5e5" stroke-width="1" rx="10"/><rect x="204" y="422" width="166" height="26" fill="#fafafa" stroke="#e5e5e5" stroke-width="1" rx="8"/><circle cx="217" cy="435" r="4" fill="#a3a3a3"/><rect x="228" y="431" width="106" height="8" fill="#d4d4d4" rx="5" /><rect x="344" y="426" width="20" height="18" fill="#171717" rx="6" /><rect x="204" y="458" width="152.72" height="7" fill="#e5e5e5" rx="5" /><rect x="204" y="472" width="102.92" height="7" fill="#e5e5e5" rx="5" /><circle cx="605" cy="373" r="2" fill="#d4d4d4"/><circle cx="611" cy="373" r="2" fill="#d4d4d4"/><circle cx="622" cy="373" r="4" fill="#8a5cd6"/><text x="632" y="377" font-family="Inter, -apple-system, system-ui, sans-serif" font-size="11" font-weight="600" fill="#737373" text-anchor="start" >Synthesize</text><rect x="600" y="384" width="190" height="130" fill="#ffffff" stroke="#e5e5e5" stroke-width="1" rx="10"/><rect x="612" y="396" width="55.2" height="20" fill="#f1eafe" rx="10" /><text x="639.6" y="409.5" font-family="Inter, -apple-system, system-ui, sans-serif" font-size="10" font-weight="600" fill="#8a5cd6" text-anchor="middle" >Claims</text><rect x="612" y="424" width="152.72" height="7" fill="#e5e5e5" rx="5" /><rect x="612" y="437" width="102.92" height="7" fill="#e5e5e5" rx="5" /><rect x="612" y="452" width="31.200000000000003" height="16" fill="#e6f4f4" rx="4" /><text x="627.6" y="463.5" font-family="Inter, -apple-system, system-ui, sans-serif" font-size="9.5" font-weight="600" fill="#019A99" text-anchor="middle" >[1]</text><rect x="646" y="452" width="31.200000000000003" height="16" fill="#e6f4f4" rx="4" /><text x="661.6" y="463.5" font-family="Inter, -apple-system, system-ui, sans-serif" font-size="9.5" font-weight="600" fill="#019A99" text-anchor="middle" >[2]</text><line x1="612" y1="478" x2="778" y2="478" stroke="#e5e5e5" stroke-width="1"/><rect x="612" y="486" width="116.19999999999999" height="7" fill="#d4d4d4" rx="5" /><circle cx="1013" cy="393" r="2" fill="#d4d4d4"/><circle cx="1019" cy="393" r="2" fill="#d4d4d4"/><circle cx="1030" cy="393" r="4" fill="#2f9e6b"/><text x="1040" y="397" font-family="Inter, -apple-system, system-ui, sans-serif" font-size="11" font-weight="600" fill="#737373" text-anchor="start" >Draft</text><rect x="1008" y="404" width="190" height="112" fill="#ffffff" stroke="#e5e5e5" stroke-width="1" rx="10"/><rect x="1020" y="416" width="83" height="10" fill="#d4d4d4" rx="5" /><rect x="1020" y="436" width="152.72" height="7" fill="#e5e5e5" rx="5" /><rect x="1020" y="449" width="102.92" height="7" fill="#e5e5e5" rx="5" /><g><rect x="1111.3" y="449" width="31.200000000000003" height="16" fill="#e6f4f4" rx="4" /><text x="1126.8999999999999" y="460.5" font-family="Inter, -apple-system, system-ui, sans-serif" font-size="9.5" font-weight="600" fill="#019A99" text-anchor="middle" >[1]</text></g><rect x="1020" y="472" width="152.72" height="7" fill="#e5e5e5" rx="5" /><rect x="1020" y="485" width="102.92" height="7" fill="#e5e5e5" rx="5" /><path d="M 382 458 C 442 458, 540 449, 600 449" stroke="#a3a3a3" stroke-width="1.5" fill="none"/><path d="M 790 449 C 850 449, 948 460, 1008 460" stroke="#a3a3a3" stroke-width="1.5" fill="none"/></svg>