<svg xmlns="http://www.w3.org/2000/svg" width="1440" height="460" viewBox="0 0 1440 460">
<rect x="0" y="0" width="1440" height="460" fill="#ffffff" rx="0" />
<text x="720" y="70" font-family="Inter, -apple-system, system-ui, sans-serif" font-size="10" font-weight="700" fill="#019A99" text-anchor="middle" letter-spacing="2">HOW IT WORKS</text><rect x="520" y="92" width="400" height="20" fill="#d4d4d4" rx="10" /><rect x="140" y="160" width="360" height="230" fill="#ffffff" stroke="#e5e5e5" stroke-width="1" rx="12"/><circle cx="174" cy="194" r="14" fill="#e6f4f4"/><text x="174" y="199" font-family="Inter, -apple-system, system-ui, sans-serif" font-size="12" font-weight="700" fill="#019A99" text-anchor="middle" >1</text><text x="198" y="199" font-family="Inter, -apple-system, system-ui, sans-serif" font-size="15" font-weight="600" fill="#171717" text-anchor="start" >Scout</text><rect x="164" y="226" width="287.04" height="8" fill="#e5e5e5" rx="5" /><rect x="164" y="242" width="193.44" height="8" fill="#e5e5e5" rx="5" /><rect x="164" y="274" width="312" height="70" fill="#fafafa" stroke="#e5e5e5" stroke-width="1" rx="8"/><circle cx="184" cy="296" r="5" fill="#3d74c6"/><rect x="198" y="291" width="200" height="9" fill="#d4d4d4" rx="5" /><rect x="184" y="314" width="240" height="7" fill="#e5e5e5" rx="5" /><text x="164" y="372" font-family="Inter, -apple-system, system-ui, sans-serif" font-size="11.5" font-weight="600" fill="#019A99" text-anchor="start" >Run search</text><path d="M 512 275 l 16 0 m -6 -6 l 6 6 l -6 6" stroke="#a3a3a3" stroke-width="1.5" fill="none"/><rect x="540" y="160" width="360" height="230" fill="#ffffff" stroke="#e5e5e5" stroke-width="1" rx="12"/><circle cx="574" cy="194" r="14" fill="#e6f4f4"/><text x="574" y="199" font-family="Inter, -apple-system, system-ui, sans-serif" font-size="12" font-weight="700" fill="#019A99" text-anchor="middle" >2</text><text x="598" y="199" font-family="Inter, -apple-system, system-ui, sans-serif" font-size="15" font-weight="600" fill="#171717" text-anchor="start" >Synthesize</text><rect x="564" y="226" width="287.04" height="8" fill="#e5e5e5" rx="5" /><rect x="564" y="242" width="193.44" height="8" fill="#e5e5e5" rx="5" /><rect x="564" y="274" width="312" height="70" fill="#fafafa" stroke="#e5e5e5" stroke-width="1" rx="8"/><circle cx="584" cy="296" r="5" fill="#8a5cd6"/><rect x="598" y="291" width="200" height="9" fill="#d4d4d4" rx="5" /><rect x="584" y="314" width="240" height="7" fill="#e5e5e5" rx="5" /><text x="564" y="372" font-family="Inter, -apple-system, system-ui, sans-serif" font-size="11.5" font-weight="600" fill="#019A99" text-anchor="start" >Synthesize sources</text><path d="M 912 275 l 16 0 m -6 -6 l 6 6 l -6 6" stroke="#a3a3a3" stroke-width="1.5" fill="none"/><rect x="940" y="160" width="360" height="230" fill="#ffffff" stroke="#e5e5e5" stroke-width="1" rx="12"/><circle cx="974" cy="194" r="14" fill="#e6f4f4"/><text x="974" y="199" font-family="Inter, -apple-system, system-ui, sans-serif" font-size="12" font-weight="700" fill="#019A99" text-anchor="middle" >3</text><text x="998" y="199" font-family="Inter, -apple-system, system-ui, sans-serif" font-size="15" font-weight="600" fill="#171717" text-anchor="start" >Compose</text><rect x="964" y="226" width="287.04" height="8" fill="#e5e5e5" rx="5" /><rect x="964" y="242" width="193.44" height="8" fill="#e5e5e5" rx="5" /><rect x="964" y="274" width="312" height="70" fill="#fafafa" stroke="#e5e5e5" stroke-width="1" rx="8"/><circle cx="984" cy="296" r="5" fill="#2f9e6b"/><rect x="998" y="291" width="200" height="9" fill="#d4d4d4" rx="5" /><rect x="984" y="314" width="240" height="7" fill="#e5e5e5" rx="5" /><text x="964" y="372" font-family="Inter, -apple-system, system-ui, sans-serif" font-size="11.5" font-weight="600" fill="#019A99" text-anchor="start" >Draft section</text></svg>