<svg xmlns="http://www.w3.org/2000/svg" width="1440" height="560" viewBox="0 0 1440 560">
<rect x="0" y="0" width="1440" height="560" fill="#ffffff" rx="0" />
<rect x="120" y="70" width="111" height="20" fill="#e6f4f4" rx="10" /><text x="175.5" y="83.5" font-family="Inter, -apple-system, system-ui, sans-serif" font-size="10" font-weight="600" fill="#019A99" text-anchor="middle" >THINK SPATIALLY</text><rect x="120" y="108" width="420" height="20" fill="#d4d4d4" rx="10" /><rect x="120" y="148" width="349.6" height="9" fill="#e5e5e5" rx="5" /><rect x="120" y="166" width="380" height="9" fill="#e5e5e5" rx="5" /><rect x="120" y="184" width="235.6" height="9" fill="#e5e5e5" rx="5" /><text x="120" y="232" font-family="Inter, -apple-system, system-ui, sans-serif" font-size="11.5" font-weight="600" fill="#019A99" text-anchor="start" >Right-click to add a node</text><rect x="120" y="270" width="1200" height="240" fill="#f5f5f5" rx="12" /><circle cx="142" cy="292" r="1" fill="#d4d4d4"/><circle cx="142" cy="314" r="1" fill="#d4d4d4"/><circle cx="142" cy="336" r="1" fill="#d4d4d4"/><circle cx="142" cy="358" r="1" fill="#d4d4d4"/><circle cx="142" cy="380" r="1" fill="#d4d4d4"/><circle cx="142" cy="402" r="1" fill="#d4d4d4"/><circle cx="142" cy="424" r="1" fill="#d4d4d4"/><circle cx="142" cy="446" r="1" fill="#d4d4d4"/><circle cx="142" cy="468" r="1" fill="#d4d4d4"/><circle cx="142" cy="490" r="1" fill="#d4d4d4"/><circle cx="164" cy="292" r="1" fill="#d4d4d4"/><circle cx="164" cy="314" r="1" fill="#d4d4d4"/><circle cx="164" cy="336" r="1" fill="#d4d4d4"/><circle cx="164" cy="358" r="1" fill="#d4d4d4"/><circle cx="164" cy="380" r="1" fill="#d4d4d4"/><circle cx="164" cy="402" r="1" fill="#d4d4d4"/><circle cx="164" cy="424" r="1" fill="#d4d4d4"/><circle cx="164" cy="446" r="1" fill="#d4d4d4"/><circle cx="164" cy="468" r="1" fill="#d4d4d4"/><circle cx="164" cy="490" r="1" fill="#d4d4d4"/><circle cx="186" cy="292" r="1" fill="#d4d4d4"/><circle cx="186" cy="314" r="1" fill="#d4d4d4"/><circle cx="186" cy="336" r="1" fill="#d4d4d4"/><circle cx="186" cy="358" r="1" fill="#d4d4d4"/><circle cx="186" cy="380" r="1" fill="#d4d4d4"/><circle cx="186" cy="402" r="1" fill="#d4d4d4"/><circle cx="186" cy="424" r="1" fill="#d4d4d4"/><circle cx="186" cy="446" r="1" fill="#d4d4d4"/><circle cx="186" cy="468" r="1" fill="#d4d4d4"/><circle cx="186" cy="490" r="1" fill="#d4d4d4"/><circle cx="208" cy="292" r="1" fill="#d4d4d4"/><circle cx="208" cy="314" r="1" fill="#d4d4d4"/><circle cx="208" cy="336" r="1" fill="#d4d4d4"/><circle cx="208" cy="358" r="1" fill="#d4d4d4"/><circle cx="208" cy="380" r="1" fill="#d4d4d4"/><circle cx="208" cy="402" r="1" fill="#d4d4d4"/><circle cx="208" cy="424" r="1" fill="#d4d4d4"/><circle cx="208" cy="446" r="1" fill="#d4d4d4"/><circle cx="208" cy="468" r="1" fill="#d4d4d4"/><circle cx="208" cy="490" r="1" fill="#d4d4d4"/><circle cx="230" cy="292" r="1" fill="#d4d4d4"/><circle cx="230" cy="314" r="1" fill="#d4d4d4"/><circle cx="230" cy="336" r="1" fill="#d4d4d4"/><circle cx="230" cy="358" r="1" fill="#d4d4d4"/><circle cx="230" cy="380" r="1" fill="#d4d4d4"/><circle cx="230" cy="402" r="1" fill="#d4d4d4"/><circle cx="230" cy="424" r="1" fill="#d4d4d4"/><circle cx="230" cy="446" r="1" fill="#d4d4d4"/><circle cx="230" cy="468" r="1" fill="#d4d4d4"/><circle cx="230" cy="490" r="1" fill="#d4d4d4"/><circle cx="252" cy="292" r="1" fill="#d4d4d4"/><circle cx="252" cy="314" r="1" fill="#d4d4d4"/><circle cx="252" cy="336" r="1" fill="#d4d4d4"/><circle cx="252" cy="358" r="1" fill="#d4d4d4"/><circle cx="252" cy="380" r="1" fill="#d4d4d4"/><circle cx="252" cy="402" r="1" fill="#d4d4d4"/><circle cx="252" cy="424" r="1" fill="#d4d4d4"/><circle cx="252" cy="446" r="1" fill="#d4d4d4"/><circle cx="252" cy="468" r="1" fill="#d4d4d4"/><circle cx="252" cy="490" r="1" fill="#d4d4d4"/><circle cx="274" cy="292" r="1" fill="#d4d4d4"/><circle cx="274" cy="314" r="1" fill="#d4d4d4"/><circle cx="274" cy="336" r="1" fill="#d4d4d4"/><circle cx="274" cy="358" r="1" fill="#d4d4d4"/><circle cx="274" cy="380" r="1" fill="#d4d4d4"/><circle cx="274" cy="402" r="1" fill="#d4d4d4"/><circle cx="274" cy="424" r="1" fill="#d4d4d4"/><circle cx="274" cy="446" r="1" fill="#d4d4d4"/><circle cx="274" cy="468" r="1" fill="#d4d4d4"/><circle cx="274" cy="490" r="1" fill="#d4d4d4"/><circle cx="296" cy="292" r="1" fill="#d4d4d4"/><circle cx="296" cy="314" r="1" fill="#d4d4d4"/><circle cx="296" cy="336" r="1" fill="#d4d4d4"/><circle cx="296" cy="358" r="1" fill="#d4d4d4"/><circle cx="296" cy="380" r="1" fill="#d4d4d4"/><circle cx="296" cy="402" r="1" fill="#d4d4d4"/><circle cx="296" cy="424" r="1" fill="#d4d4d4"/><circle cx="296" cy="446" r="1" fill="#d4d4d4"/><circle cx="296" cy="468" r="1" fill="#d4d4d4"/><circle cx="296" cy="490" r="1" fill="#d4d4d4"/><circle cx="318" cy="292" r="1" fill="#d4d4d4"/><circle cx="318" cy="314" r="1" fill="#d4d4d4"/><circle cx="318" cy="336" r="1" fill="#d4d4d4"/><circle cx="318" cy="358" r="1" fill="#d4d4d4"/><circle cx="318" cy="380" r="1" fill="#d4d4d4"/><circle cx="318" cy="402" r="1" fill="#d4d4d4"/><circle cx="318" cy="424" r="1" fill="#d4d4d4"/><circle cx="318" cy="446" r="1" fill="#d4d4d4"/><circle cx="318" cy="468" r="1" fill="#d4d4d4"/><circle cx="318" cy="490" r="1" fill="#d4d4d4"/><circle cx="340" cy="292" r="1" fill="#d4d4d4"/><circle cx="340" cy="314" r="1" fill="#d4d4d4"/><circle cx="340" cy="336" r="1" fill="#d4d4d4"/><circle cx="340" cy="358" r="1" fill="#d4d4d4"/><circle cx="340" cy="380" r="1" fill="#d4d4d4"/><circle cx="340" cy="402" r="1" fill="#d4d4d4"/><circle cx="340" cy="424" r="1" fill="#d4d4d4"/><circle cx="340" cy="446" r="1" fill="#d4d4d4"/><circle cx="340" cy="468" r="1" fill="#d4d4d4"/><circle cx="340" cy="490" r="1" fill="#d4d4d4"/><circle cx="362" cy="292" r="1" fill="#d4d4d4"/><circle cx="362" cy="314" r="1" fill="#d4d4d4"/><circle cx="362" cy="336" r="1" fill="#d4d4d4"/><circle cx="362" cy="358" r="1" fill="#d4d4d4"/><circle cx="362" cy="380" r="1" fill="#d4d4d4"/><circle cx="362" cy="402" r="1" fill="#d4d4d4"/><circle cx="362" cy="424" r="1" fill="#d4d4d4"/><circle cx="362" cy="446" r="1" fill="#d4d4d4"/><circle cx="362" cy="468" r="1" fill="#d4d4d4"/><circle cx="362" cy="490" r="1" fill="#d4d4d4"/><circle cx="384" cy="292" r="1" fill="#d4d4d4"/><circle cx="384" cy="314" r="1" fill="#d4d4d4"/><circle cx="384" cy="336" r="1" fill="#d4d4d4"/><circle cx="384" cy="358" r="1" fill="#d4d4d4"/><circle cx="384" cy="380" r="1" fill="#d4d4d4"/><circle cx="384" cy="402" r="1" fill="#d4d4d4"/><circle cx="384" cy="424" r="1" fill="#d4d4d4"/><circle cx="384" cy="446" r="1" fill="#d4d4d4"/><circle cx="384" cy="468" r="1" fill="#d4d4d4"/><circle cx="384" cy="490" r="1" fill="#d4d4d4"/><circle cx="406" cy="292" r="1" fill="#d4d4d4"/><circle cx="406" cy="314" r="1" fill="#d4d4d4"/><circle cx="406" cy="336" r="1" fill="#d4d4d4"/><circle cx="406" cy="358" r="1" fill="#d4d4d4"/><circle cx="406" cy="380" r="1" fill="#d4d4d4"/><circle cx="406" cy="402" r="1" fill="#d4d4d4"/><circle cx="406" cy="424" r="1" fill="#d4d4d4"/><circle cx="406" cy="446" r="1" fill="#d4d4d4"/><circle cx="406" cy="468" r="1" fill="#d4d4d4"/><circle cx="406" cy="490" r="1" fill="#d4d4d4"/><circle cx="428" cy="292" r="1" fill="#d4d4d4"/><circle cx="428" cy="314" r="1" fill="#d4d4d4"/><circle cx="428" cy="336" r="1" fill="#d4d4d4"/><circle cx="428" cy="358" r="1" fill="#d4d4d4"/><circle cx="428" cy="380" r="1" fill="#d4d4d4"/><circle cx="428" cy="402" r="1" fill="#d4d4d4"/><circle cx="428" cy="424" r="1" fill="#d4d4d4"/><circle cx="428" cy="446" r="1" fill="#d4d4d4"/><circle cx="428" cy="468" r="1" fill="#d4d4d4"/><circle cx="428" cy="490" r="1" fill="#d4d4d4"/><circle cx="450" cy="292" r="1" fill="#d4d4d4"/><circle cx="450" cy="314" r="1" fill="#d4d4d4"/><circle cx="450" cy="336" r="1" fill="#d4d4d4"/><circle cx="450" cy="358" r="1" fill="#d4d4d4"/><circle cx="450" cy="380" r="1" fill="#d4d4d4"/><circle cx="450" cy="402" r="1" fill="#d4d4d4"/><circle cx="450" cy="424" r="1" fill="#d4d4d4"/><circle cx="450" cy="446" r="1" fill="#d4d4d4"/><circle cx="450" cy="468" r="1" fill="#d4d4d4"/><circle cx="450" cy="490" r="1" fill="#d4d4d4"/><circle cx="472" cy="292" r="1" fill="#d4d4d4"/><circle cx="472" cy="314" r="1" fill="#d4d4d4"/><circle cx="472" cy="336" r="1" fill="#d4d4d4"/><circle cx="472" cy="358" r="1" fill="#d4d4d4"/><circle cx="472" cy="380" r="1" fill="#d4d4d4"/><circle cx="472" cy="402" r="1" fill="#d4d4d4"/><circle cx="472" cy="424" r="1" fill="#d4d4d4"/><circle cx="472" cy="446" r="1" fill="#d4d4d4"/><circle cx="472" cy="468" r="1" fill="#d4d4d4"/><circle cx="472" cy="490" r="1" fill="#d4d4d4"/><circle cx="494" cy="292" r="1" fill="#d4d4d4"/><circle cx="494" cy="314" r="1" fill="#d4d4d4"/><circle cx="494" cy="336" r="1" fill="#d4d4d4"/><circle cx="494" cy="358" r="1" fill="#d4d4d4"/><circle cx="494" cy="380" r="1" fill="#d4d4d4"/><circle cx="494" cy="402" r="1" fill="#d4d4d4"/><circle cx="494" cy="424" r="1" fill="#d4d4d4"/><circle cx="494" cy="446" r="1" fill="#d4d4d4"/><circle cx="494" cy="468" r="1" fill="#d4d4d4"/><circle cx="494" cy="490" r="1" fill="#d4d4d4"/><circle cx="516" cy="292" r="1" fill="#d4d4d4"/><circle cx="516" cy="314" r="1" fill="#d4d4d4"/><circle cx="516" cy="336" r="1" fill="#d4d4d4"/><circle cx="516" cy="358" r="1" fill="#d4d4d4"/><circle cx="516" cy="380" r="1" fill="#d4d4d4"/><circle cx="516" cy="402" r="1" fill="#d4d4d4"/><circle cx="516" cy="424" r="1" fill="#d4d4d4"/><circle cx="516" cy="446" r="1" fill="#d4d4d4"/><circle cx="516" cy="468" r="1" fill="#d4d4d4"/><circle cx="516" cy="490" r="1" fill="#d4d4d4"/><circle cx="538" cy="292" r="1" fill="#d4d4d4"/><circle cx="538" cy="314" r="1" fill="#d4d4d4"/><circle cx="538" cy="336" r="1" fill="#d4d4d4"/><circle cx="538" cy="358" r="1" fill="#d4d4d4"/><circle cx="538" cy="380" r="1" fill="#d4d4d4"/><circle cx="538" cy="402" r="1" fill="#d4d4d4"/><circle cx="538" cy="424" r="1" fill="#d4d4d4"/><circle cx="538" cy="446" r="1" fill="#d4d4d4"/><circle cx="538" cy="468" r="1" fill="#d4d4d4"/><circle cx="538" cy="490" r="1" fill="#d4d4d4"/><circle cx="560" cy="292" r="1" fill="#d4d4d4"/><circle cx="560" cy="314" r="1" fill="#d4d4d4"/><circle cx="560" cy="336" r="1" fill="#d4d4d4"/><circle cx="560" cy="358" r="1" fill="#d4d4d4"/><circle cx="560" cy="380" r="1" fill="#d4d4d4"/><circle cx="560" cy="402" r="1" fill="#d4d4d4"/><circle cx="560" cy="424" r="1" fill="#d4d4d4"/><circle cx="560" cy="446" r="1" fill="#d4d4d4"/><circle cx="560" cy="468" r="1" fill="#d4d4d4"/><circle cx="560" cy="490" r="1" fill="#d4d4d4"/><circle cx="582" cy="292" r="1" fill="#d4d4d4"/><circle cx="582" cy="314" r="1" fill="#d4d4d4"/><circle cx="582" cy="336" r="1" fill="#d4d4d4"/><circle cx="582" cy="358" r="1" fill="#d4d4d4"/><circle cx="582" cy="380" r="1" fill="#d4d4d4"/><circle cx="582" cy="402" r="1" fill="#d4d4d4"/><circle cx="582" cy="424" r="1" fill="#d4d4d4"/><circle cx="582" cy="446" r="1" fill="#d4d4d4"/><circle cx="582" cy="468" r="1" fill="#d4d4d4"/><circle cx="582" cy="490" r="1" fill="#d4d4d4"/><circle cx="604" cy="292" r="1" fill="#d4d4d4"/><circle cx="604" cy="314" r="1" fill="#d4d4d4"/><circle cx="604" cy="336" r="1" fill="#d4d4d4"/><circle cx="604" cy="358" r="1" fill="#d4d4d4"/><circle cx="604" cy="380" r="1" fill="#d4d4d4"/><circle cx="604" cy="402" r="1" fill="#d4d4d4"/><circle cx="604" cy="424" r="1" fill="#d4d4d4"/><circle cx="604" cy="446" r="1" fill="#d4d4d4"/><circle cx="604" cy="468" r="1" fill="#d4d4d4"/><circle cx="604" cy="490" r="1" fill="#d4d4d4"/><circle cx="626" cy="292" r="1" fill="#d4d4d4"/><circle cx="626" cy="314" r="1" fill="#d4d4d4"/><circle cx="626" cy="336" r="1" fill="#d4d4d4"/><circle cx="626" cy="358" r="1" fill="#d4d4d4"/><circle cx="626" cy="380" r="1" fill="#d4d4d4"/><circle cx="626" cy="402" r="1" fill="#d4d4d4"/><circle cx="626" cy="424" r="1" fill="#d4d4d4"/><circle cx="626" cy="446" r="1" fill="#d4d4d4"/><circle cx="626" cy="468" r="1" fill="#d4d4d4"/><circle cx="626" cy="490" r="1" fill="#d4d4d4"/><circle cx="648" cy="292" r="1" fill="#d4d4d4"/><circle cx="648" cy="314" r="1" fill="#d4d4d4"/><circle cx="648" cy="336" r="1" fill="#d4d4d4"/><circle cx="648" cy="358" r="1" fill="#d4d4d4"/><circle cx="648" cy="380" r="1" fill="#d4d4d4"/><circle cx="648" cy="402" r="1" fill="#d4d4d4"/><circle cx="648" cy="424" r="1" fill="#d4d4d4"/><circle cx="648" cy="446" r="1" fill="#d4d4d4"/><circle cx="648" cy="468" r="1" fill="#d4d4d4"/><circle cx="648" cy="490" r="1" fill="#d4d4d4"/><circle cx="670" cy="292" r="1" fill="#d4d4d4"/><circle cx="670" cy="314" r="1" fill="#d4d4d4"/><circle cx="670" cy="336" r="1" fill="#d4d4d4"/><circle cx="670" cy="358" r="1" fill="#d4d4d4"/><circle cx="670" cy="380" r="1" fill="#d4d4d4"/><circle cx="670" cy="402" r="1" fill="#d4d4d4"/><circle cx="670" cy="424" r="1" fill="#d4d4d4"/><circle cx="670" cy="446" r="1" fill="#d4d4d4"/><circle cx="670" cy="468" r="1" fill="#d4d4d4"/><circle cx="670" cy="490" r="1" fill="#d4d4d4"/><circle cx="692" cy="292" r="1" fill="#d4d4d4"/><circle cx="692" cy="314" r="1" fill="#d4d4d4"/><circle cx="692" cy="336" r="1" fill="#d4d4d4"/><circle cx="692" cy="358" r="1" fill="#d4d4d4"/><circle cx="692" cy="380" r="1" fill="#d4d4d4"/><circle cx="692" cy="402" r="1" fill="#d4d4d4"/><circle cx="692" cy="424" r="1" fill="#d4d4d4"/><circle cx="692" cy="446" r="1" fill="#d4d4d4"/><circle cx="692" cy="468" r="1" fill="#d4d4d4"/><circle cx="692" cy="490" r="1" fill="#d4d4d4"/><circle cx="714" cy="292" r="1" fill="#d4d4d4"/><circle cx="714" cy="314" r="1" fill="#d4d4d4"/><circle cx="714" cy="336" r="1" fill="#d4d4d4"/><circle cx="714" cy="358" r="1" fill="#d4d4d4"/><circle cx="714" cy="380" r="1" fill="#d4d4d4"/><circle cx="714" cy="402" r="1" fill="#d4d4d4"/><circle cx="714" cy="424" r="1" fill="#d4d4d4"/><circle cx="714" cy="446" r="1" fill="#d4d4d4"/><circle cx="714" cy="468" r="1" fill="#d4d4d4"/><circle cx="714" cy="490" r="1" fill="#d4d4d4"/><circle cx="736" cy="292" r="1" fill="#d4d4d4"/><circle cx="736" cy="314" r="1" fill="#d4d4d4"/><circle cx="736" cy="336" r="1" fill="#d4d4d4"/><circle cx="736" cy="358" r="1" fill="#d4d4d4"/><circle cx="736" cy="380" r="1" fill="#d4d4d4"/><circle cx="736" cy="402" r="1" fill="#d4d4d4"/><circle cx="736" cy="424" r="1" fill="#d4d4d4"/><circle cx="736" cy="446" r="1" fill="#d4d4d4"/><circle cx="736" cy="468" r="1" fill="#d4d4d4"/><circle cx="736" cy="490" r="1" fill="#d4d4d4"/><circle cx="758" cy="292" r="1" fill="#d4d4d4"/><circle cx="758" cy="314" r="1" fill="#d4d4d4"/><circle cx="758" cy="336" r="1" fill="#d4d4d4"/><circle cx="758" cy="358" r="1" fill="#d4d4d4"/><circle cx="758" cy="380" r="1" fill="#d4d4d4"/><circle cx="758" cy="402" r="1" fill="#d4d4d4"/><circle cx="758" cy="424" r="1" fill="#d4d4d4"/><circle cx="758" cy="446" r="1" fill="#d4d4d4"/><circle cx="758" cy="468" r="1" fill="#d4d4d4"/><circle cx="758" cy="490" r="1" fill="#d4d4d4"/><circle cx="780" cy="292" r="1" fill="#d4d4d4"/><circle cx="780" cy="314" r="1" fill="#d4d4d4"/><circle cx="780" cy="336" r="1" fill="#d4d4d4"/><circle cx="780" cy="358" r="1" fill="#d4d4d4"/><circle cx="780" cy="380" r="1" fill="#d4d4d4"/><circle cx="780" cy="402" r="1" fill="#d4d4d4"/><circle cx="780" cy="424" r="1" fill="#d4d4d4"/><circle cx="780" cy="446" r="1" fill="#d4d4d4"/><circle cx="780" cy="468" r="1" fill="#d4d4d4"/><circle cx="780" cy="490" r="1" fill="#d4d4d4"/><circle cx="802" cy="292" r="1" fill="#d4d4d4"/><circle cx="802" cy="314" r="1" fill="#d4d4d4"/><circle cx="802" cy="336" r="1" fill="#d4d4d4"/><circle cx="802" cy="358" r="1" fill="#d4d4d4"/><circle cx="802" cy="380" r="1" fill="#d4d4d4"/><circle cx="802" cy="402" r="1" fill="#d4d4d4"/><circle cx="802" cy="424" r="1" fill="#d4d4d4"/><circle cx="802" cy="446" r="1" fill="#d4d4d4"/><circle cx="802" cy="468" r="1" fill="#d4d4d4"/><circle cx="802" cy="490" r="1" fill="#d4d4d4"/><circle cx="824" cy="292" r="1" fill="#d4d4d4"/><circle cx="824" cy="314" r="1" fill="#d4d4d4"/><circle cx="824" cy="336" r="1" fill="#d4d4d4"/><circle cx="824" cy="358" r="1" fill="#d4d4d4"/><circle cx="824" cy="380" r="1" fill="#d4d4d4"/><circle cx="824" cy="402" r="1" fill="#d4d4d4"/><circle cx="824" cy="424" r="1" fill="#d4d4d4"/><circle cx="824" cy="446" r="1" fill="#d4d4d4"/><circle cx="824" cy="468" r="1" fill="#d4d4d4"/><circle cx="824" cy="490" r="1" fill="#d4d4d4"/><circle cx="846" cy="292" r="1" fill="#d4d4d4"/><circle cx="846" cy="314" r="1" fill="#d4d4d4"/><circle cx="846" cy="336" r="1" fill="#d4d4d4"/><circle cx="846" cy="358" r="1" fill="#d4d4d4"/><circle cx="846" cy="380" r="1" fill="#d4d4d4"/><circle cx="846" cy="402" r="1" fill="#d4d4d4"/><circle cx="846" cy="424" r="1" fill="#d4d4d4"/><circle cx="846" cy="446" r="1" fill="#d4d4d4"/><circle cx="846" cy="468" r="1" fill="#d4d4d4"/><circle cx="846" cy="490" r="1" fill="#d4d4d4"/><circle cx="868" cy="292" r="1" fill="#d4d4d4"/><circle cx="868" cy="314" r="1" fill="#d4d4d4"/><circle cx="868" cy="336" r="1" fill="#d4d4d4"/><circle cx="868" cy="358" r="1" fill="#d4d4d4"/><circle cx="868" cy="380" r="1" fill="#d4d4d4"/><circle cx="868" cy="402" r="1" fill="#d4d4d4"/><circle cx="868" cy="424" r="1" fill="#d4d4d4"/><circle cx="868" cy="446" r="1" fill="#d4d4d4"/><circle cx="868" cy="468" r="1" fill="#d4d4d4"/><circle cx="868" cy="490" r="1" fill="#d4d4d4"/><circle cx="890" cy="292" r="1" fill="#d4d4d4"/><circle cx="890" cy="314" r="1" fill="#d4d4d4"/><circle cx="890" cy="336" r="1" fill="#d4d4d4"/><circle cx="890" cy="358" r="1" fill="#d4d4d4"/><circle cx="890" cy="380" r="1" fill="#d4d4d4"/><circle cx="890" cy="402" r="1" fill="#d4d4d4"/><circle cx="890" cy="424" r="1" fill="#d4d4d4"/><circle cx="890" cy="446" r="1" fill="#d4d4d4"/><circle cx="890" cy="468" r="1" fill="#d4d4d4"/><circle cx="890" cy="490" r="1" fill="#d4d4d4"/><circle cx="912" cy="292" r="1" fill="#d4d4d4"/><circle cx="912" cy="314" r="1" fill="#d4d4d4"/><circle cx="912" cy="336" r="1" fill="#d4d4d4"/><circle cx="912" cy="358" r="1" fill="#d4d4d4"/><circle cx="912" cy="380" r="1" fill="#d4d4d4"/><circle cx="912" cy="402" r="1" fill="#d4d4d4"/><circle cx="912" cy="424" r="1" fill="#d4d4d4"/><circle cx="912" cy="446" r="1" fill="#d4d4d4"/><circle cx="912" cy="468" r="1" fill="#d4d4d4"/><circle cx="912" cy="490" r="1" fill="#d4d4d4"/><circle cx="934" cy="292" r="1" fill="#d4d4d4"/><circle cx="934" cy="314" r="1" fill="#d4d4d4"/><circle cx="934" cy="336" r="1" fill="#d4d4d4"/><circle cx="934" cy="358" r="1" fill="#d4d4d4"/><circle cx="934" cy="380" r="1" fill="#d4d4d4"/><circle cx="934" cy="402" r="1" fill="#d4d4d4"/><circle cx="934" cy="424" r="1" fill="#d4d4d4"/><circle cx="934" cy="446" r="1" fill="#d4d4d4"/><circle cx="934" cy="468" r="1" fill="#d4d4d4"/><circle cx="934" cy="490" r="1" fill="#d4d4d4"/><circle cx="956" cy="292" r="1" fill="#d4d4d4"/><circle cx="956" cy="314" r="1" fill="#d4d4d4"/><circle cx="956" cy="336" r="1" fill="#d4d4d4"/><circle cx="956" cy="358" r="1" fill="#d4d4d4"/><circle cx="956" cy="380" r="1" fill="#d4d4d4"/><circle cx="956" cy="402" r="1" fill="#d4d4d4"/><circle cx="956" cy="424" r="1" fill="#d4d4d4"/><circle cx="956" cy="446" r="1" fill="#d4d4d4"/><circle cx="956" cy="468" r="1" fill="#d4d4d4"/><circle cx="956" cy="490" r="1" fill="#d4d4d4"/><circle cx="978" cy="292" r="1" fill="#d4d4d4"/><circle cx="978" cy="314" r="1" fill="#d4d4d4"/><circle cx="978" cy="336" r="1" fill="#d4d4d4"/><circle cx="978" cy="358" r="1" fill="#d4d4d4"/><circle cx="978" cy="380" r="1" fill="#d4d4d4"/><circle cx="978" cy="402" r="1" fill="#d4d4d4"/><circle cx="978" cy="424" r="1" fill="#d4d4d4"/><circle cx="978" cy="446" r="1" fill="#d4d4d4"/><circle cx="978" cy="468" r="1" fill="#d4d4d4"/><circle cx="978" cy="490" r="1" fill="#d4d4d4"/><circle cx="1000" cy="292" r="1" fill="#d4d4d4"/><circle cx="1000" cy="314" r="1" fill="#d4d4d4"/><circle cx="1000" cy="336" r="1" fill="#d4d4d4"/><circle cx="1000" cy="358" r="1" fill="#d4d4d4"/><circle cx="1000" cy="380" r="1" fill="#d4d4d4"/><circle cx="1000" cy="402" r="1" fill="#d4d4d4"/><circle cx="1000" cy="424" r="1" fill="#d4d4d4"/><circle cx="1000" cy="446" r="1" fill="#d4d4d4"/><circle cx="1000" cy="468" r="1" fill="#d4d4d4"/><circle cx="1000" cy="490" r="1" fill="#d4d4d4"/><circle cx="1022" cy="292" r="1" fill="#d4d4d4"/><circle cx="1022" cy="314" r="1" fill="#d4d4d4"/><circle cx="1022" cy="336" r="1" fill="#d4d4d4"/><circle cx="1022" cy="358" r="1" fill="#d4d4d4"/><circle cx="1022" cy="380" r="1" fill="#d4d4d4"/><circle cx="1022" cy="402" r="1" fill="#d4d4d4"/><circle cx="1022" cy="424" r="1" fill="#d4d4d4"/><circle cx="1022" cy="446" r="1" fill="#d4d4d4"/><circle cx="1022" cy="468" r="1" fill="#d4d4d4"/><circle cx="1022" cy="490" r="1" fill="#d4d4d4"/><circle cx="1044" cy="292" r="1" fill="#d4d4d4"/><circle cx="1044" cy="314" r="1" fill="#d4d4d4"/><circle cx="1044" cy="336" r="1" fill="#d4d4d4"/><circle cx="1044" cy="358" r="1" fill="#d4d4d4"/><circle cx="1044" cy="380" r="1" fill="#d4d4d4"/><circle cx="1044" cy="402" r="1" fill="#d4d4d4"/><circle cx="1044" cy="424" r="1" fill="#d4d4d4"/><circle cx="1044" cy="446" r="1" fill="#d4d4d4"/><circle cx="1044" cy="468" r="1" fill="#d4d4d4"/><circle cx="1044" cy="490" r="1" fill="#d4d4d4"/><circle cx="1066" cy="292" r="1" fill="#d4d4d4"/><circle cx="1066" cy="314" r="1" fill="#d4d4d4"/><circle cx="1066" cy="336" r="1" fill="#d4d4d4"/><circle cx="1066" cy="358" r="1" fill="#d4d4d4"/><circle cx="1066" cy="380" r="1" fill="#d4d4d4"/><circle cx="1066" cy="402" r="1" fill="#d4d4d4"/><circle cx="1066" cy="424" r="1" fill="#d4d4d4"/><circle cx="1066" cy="446" r="1" fill="#d4d4d4"/><circle cx="1066" cy="468" r="1" fill="#d4d4d4"/><circle cx="1066" cy="490" r="1" fill="#d4d4d4"/><circle cx="1088" cy="292" r="1" fill="#d4d4d4"/><circle cx="1088" cy="314" r="1" fill="#d4d4d4"/><circle cx="1088" cy="336" r="1" fill="#d4d4d4"/><circle cx="1088" cy="358" r="1" fill="#d4d4d4"/><circle cx="1088" cy="380" r="1" fill="#d4d4d4"/><circle cx="1088" cy="402" r="1" fill="#d4d4d4"/><circle cx="1088" cy="424" r="1" fill="#d4d4d4"/><circle cx="1088" cy="446" r="1" fill="#d4d4d4"/><circle cx="1088" cy="468" r="1" fill="#d4d4d4"/><circle cx="1088" cy="490" r="1" fill="#d4d4d4"/><circle cx="1110" cy="292" r="1" fill="#d4d4d4"/><circle cx="1110" cy="314" r="1" fill="#d4d4d4"/><circle cx="1110" cy="336" r="1" fill="#d4d4d4"/><circle cx="1110" cy="358" r="1" fill="#d4d4d4"/><circle cx="1110" cy="380" r="1" fill="#d4d4d4"/><circle cx="1110" cy="402" r="1" fill="#d4d4d4"/><circle cx="1110" cy="424" r="1" fill="#d4d4d4"/><circle cx="1110" cy="446" r="1" fill="#d4d4d4"/><circle cx="1110" cy="468" r="1" fill="#d4d4d4"/><circle cx="1110" cy="490" r="1" fill="#d4d4d4"/><circle cx="1132" cy="292" r="1" fill="#d4d4d4"/><circle cx="1132" cy="314" r="1" fill="#d4d4d4"/><circle cx="1132" cy="336" r="1" fill="#d4d4d4"/><circle cx="1132" cy="358" r="1" fill="#d4d4d4"/><circle cx="1132" cy="380" r="1" fill="#d4d4d4"/><circle cx="1132" cy="402" r="1" fill="#d4d4d4"/><circle cx="1132" cy="424" r="1" fill="#d4d4d4"/><circle cx="1132" cy="446" r="1" fill="#d4d4d4"/><circle cx="1132" cy="468" r="1" fill="#d4d4d4"/><circle cx="1132" cy="490" r="1" fill="#d4d4d4"/><circle cx="1154" cy="292" r="1" fill="#d4d4d4"/><circle cx="1154" cy="314" r="1" fill="#d4d4d4"/><circle cx="1154" cy="336" r="1" fill="#d4d4d4"/><circle cx="1154" cy="358" r="1" fill="#d4d4d4"/><circle cx="1154" cy="380" r="1" fill="#d4d4d4"/><circle cx="1154" cy="402" r="1" fill="#d4d4d4"/><circle cx="1154" cy="424" r="1" fill="#d4d4d4"/><circle cx="1154" cy="446" r="1" fill="#d4d4d4"/><circle cx="1154" cy="468" r="1" fill="#d4d4d4"/><circle cx="1154" cy="490" r="1" fill="#d4d4d4"/><circle cx="1176" cy="292" r="1" fill="#d4d4d4"/><circle cx="1176" cy="314" r="1" fill="#d4d4d4"/><circle cx="1176" cy="336" r="1" fill="#d4d4d4"/><circle cx="1176" cy="358" r="1" fill="#d4d4d4"/><circle cx="1176" cy="380" r="1" fill="#d4d4d4"/><circle cx="1176" cy="402" r="1" fill="#d4d4d4"/><circle cx="1176" cy="424" r="1" fill="#d4d4d4"/><circle cx="1176" cy="446" r="1" fill="#d4d4d4"/><circle cx="1176" cy="468" r="1" fill="#d4d4d4"/><circle cx="1176" cy="490" r="1" fill="#d4d4d4"/><circle cx="1198" cy="292" r="1" fill="#d4d4d4"/><circle cx="1198" cy="314" r="1" fill="#d4d4d4"/><circle cx="1198" cy="336" r="1" fill="#d4d4d4"/><circle cx="1198" cy="358" r="1" fill="#d4d4d4"/><circle cx="1198" cy="380" r="1" fill="#d4d4d4"/><circle cx="1198" cy="402" r="1" fill="#d4d4d4"/><circle cx="1198" cy="424" r="1" fill="#d4d4d4"/><circle cx="1198" cy="446" r="1" fill="#d4d4d4"/><circle cx="1198" cy="468" r="1" fill="#d4d4d4"/><circle cx="1198" cy="490" r="1" fill="#d4d4d4"/><circle cx="1220" cy="292" r="1" fill="#d4d4d4"/><circle cx="1220" cy="314" r="1" fill="#d4d4d4"/><circle cx="1220" cy="336" r="1" fill="#d4d4d4"/><circle cx="1220" cy="358" r="1" fill="#d4d4d4"/><circle cx="1220" cy="380" r="1" fill="#d4d4d4"/><circle cx="1220" cy="402" r="1" fill="#d4d4d4"/><circle cx="1220" cy="424" r="1" fill="#d4d4d4"/><circle cx="1220" cy="446" r="1" fill="#d4d4d4"/><circle cx="1220" cy="468" r="1" fill="#d4d4d4"/><circle cx="1220" cy="490" r="1" fill="#d4d4d4"/><circle cx="1242" cy="292" r="1" fill="#d4d4d4"/><circle cx="1242" cy="314" r="1" fill="#d4d4d4"/><circle cx="1242" cy="336" r="1" fill="#d4d4d4"/><circle cx="1242" cy="358" r="1" fill="#d4d4d4"/><circle cx="1242" cy="380" r="1" fill="#d4d4d4"/><circle cx="1242" cy="402" r="1" fill="#d4d4d4"/><circle cx="1242" cy="424" r="1" fill="#d4d4d4"/><circle cx="1242" cy="446" r="1" fill="#d4d4d4"/><circle cx="1242" cy="468" r="1" fill="#d4d4d4"/><circle cx="1242" cy="490" r="1" fill="#d4d4d4"/><circle cx="1264" cy="292" r="1" fill="#d4d4d4"/><circle cx="1264" cy="314" r="1" fill="#d4d4d4"/><circle cx="1264" cy="336" r="1" fill="#d4d4d4"/><circle cx="1264" cy="358" r="1" fill="#d4d4d4"/><circle cx="1264" cy="380" r="1" fill="#d4d4d4"/><circle cx="1264" cy="402" r="1" fill="#d4d4d4"/><circle cx="1264" cy="424" r="1" fill="#d4d4d4"/><circle cx="1264" cy="446" r="1" fill="#d4d4d4"/><circle cx="1264" cy="468" r="1" fill="#d4d4d4"/><circle cx="1264" cy="490" r="1" fill="#d4d4d4"/><circle cx="1286" cy="292" r="1" fill="#d4d4d4"/><circle cx="1286" cy="314" r="1" fill="#d4d4d4"/><circle cx="1286" cy="336" r="1" fill="#d4d4d4"/><circle cx="1286" cy="358" r="1" fill="#d4d4d4"/><circle cx="1286" cy="380" r="1" fill="#d4d4d4"/><circle cx="1286" cy="402" r="1" fill="#d4d4d4"/><circle cx="1286" cy="424" r="1" fill="#d4d4d4"/><circle cx="1286" cy="446" r="1" fill="#d4d4d4"/><circle cx="1286" cy="468" r="1" fill="#d4d4d4"/><circle cx="1286" cy="490" r="1" fill="#d4d4d4"/><circle cx="1308" cy="292" r="1" fill="#d4d4d4"/><circle cx="1308" cy="314" r="1" fill="#d4d4d4"/><circle cx="1308" cy="336" r="1" fill="#d4d4d4"/><circle cx="1308" cy="358" r="1" fill="#d4d4d4"/><circle cx="1308" cy="380" r="1" fill="#d4d4d4"/><circle cx="1308" cy="402" r="1" fill="#d4d4d4"/><circle cx="1308" cy="424" r="1" fill="#d4d4d4"/><circle cx="1308" cy="446" r="1" fill="#d4d4d4"/><circle cx="1308" cy="468" r="1" fill="#d4d4d4"/><circle cx="1308" cy="490" r="1" fill="#d4d4d4"/><circle cx="197" cy="316.6" r="2" fill="#d4d4d4"/><circle cx="203" cy="316.6" r="2" fill="#d4d4d4"/><circle cx="214" cy="316.6" r="4" fill="#3d74c6"/><text x="224" y="320.6" font-family="Inter, -apple-system, system-ui, sans-serif" font-size="11" font-weight="600" fill="#737373" text-anchor="start" >Sources</text><rect x="192" y="327.6" width="190" height="96" fill="#ffffff" stroke="#e5e5e5" stroke-width="1" rx="10"/><rect x="204" y="339.6" width="166" height="26" fill="#fafafa" stroke="#e5e5e5" stroke-width="1" rx="8"/><circle cx="217" cy="352.6" r="4" fill="#a3a3a3"/><rect x="228" y="348.6" width="106" height="8" fill="#d4d4d4" rx="5" /><rect x="344" y="343.6" width="20" height="18" fill="#171717" rx="6" /><rect x="204" y="375.6" width="152.72" height="7" fill="#e5e5e5" rx="5" /><rect x="204" y="389.6" width="102.92" height="7" fill="#e5e5e5" rx="5" /><circle cx="605" cy="290.6" r="2" fill="#d4d4d4"/><circle cx="611" cy="290.6" r="2" fill="#d4d4d4"/><circle cx="622" cy="290.6" r="4" fill="#8a5cd6"/><text x="632" y="294.6" font-family="Inter, -apple-system, system-ui, sans-serif" font-size="11" font-weight="600" fill="#737373" text-anchor="start" >Synthesize</text><rect x="600" y="301.6" width="190" height="130" fill="#ffffff" stroke="#e5e5e5" stroke-width="1" rx="10"/><rect x="612" y="313.6" width="55.2" height="20" fill="#f1eafe" rx="10" /><text x="639.6" y="327.1" font-family="Inter, -apple-system, system-ui, sans-serif" font-size="10" font-weight="600" fill="#8a5cd6" text-anchor="middle" >Claims</text><rect x="612" y="341.6" width="152.72" height="7" fill="#e5e5e5" rx="5" /><rect x="612" y="354.6" width="102.92" height="7" fill="#e5e5e5" rx="5" /><rect x="612" y="369.6" width="31.200000000000003" height="16" fill="#e6f4f4" rx="4" /><text x="627.6" y="381.1" font-family="Inter, -apple-system, system-ui, sans-serif" font-size="9.5" font-weight="600" fill="#019A99" text-anchor="middle" >[1]</text><rect x="646" y="369.6" width="31.200000000000003" height="16" fill="#e6f4f4" rx="4" /><text x="661.6" y="381.1" font-family="Inter, -apple-system, system-ui, sans-serif" font-size="9.5" font-weight="600" fill="#019A99" text-anchor="middle" >[2]</text><line x1="612" y1="395.6" x2="778" y2="395.6" stroke="#e5e5e5" stroke-width="1"/><rect x="612" y="403.6" width="116.19999999999999" height="7" fill="#d4d4d4" rx="5" /><circle cx="1013" cy="310.6" r="2" fill="#d4d4d4"/><circle cx="1019" cy="310.6" r="2" fill="#d4d4d4"/><circle cx="1030" cy="310.6" r="4" fill="#2f9e6b"/><text x="1040" y="314.6" font-family="Inter, -apple-system, system-ui, sans-serif" font-size="11" font-weight="600" fill="#737373" text-anchor="start" >Draft</text><rect x="1008" y="321.6" width="190" height="112" fill="#ffffff" stroke="#e5e5e5" stroke-width="1" rx="10"/><rect x="1020" y="333.6" width="83" height="10" fill="#d4d4d4" rx="5" /><rect x="1020" y="353.6" width="152.72" height="7" fill="#e5e5e5" rx="5" /><rect x="1020" y="366.6" width="102.92" height="7" fill="#e5e5e5" rx="5" /><g><rect x="1111.3" y="366.6" width="31.200000000000003" height="16" fill="#e6f4f4" rx="4" /><text x="1126.8999999999999" y="378.1" font-family="Inter, -apple-system, system-ui, sans-serif" font-size="9.5" font-weight="600" fill="#019A99" text-anchor="middle" >[1]</text></g><rect x="1020" y="389.6" width="152.72" height="7" fill="#e5e5e5" rx="5" /><rect x="1020" y="402.6" width="102.92" height="7" fill="#e5e5e5" rx="5" /><path d="M 382 375.6 C 442 375.6, 540 366.6, 600 366.6" stroke="#a3a3a3" stroke-width="1.5" fill="none"/><path d="M 790 366.6 C 850 366.6, 948 377.6, 1008 377.6" stroke="#a3a3a3" stroke-width="1.5" fill="none"/></svg>