<svg xmlns="http://www.w3.org/2000/svg" width="1440" height="560" viewBox="0 0 1440 560">
<rect x="0" y="0" width="1440" height="560" fill="#ffffff" rx="0" />
<rect x="120" y="64" width="111" height="20" fill="#e7f5ee" rx="10" /><text x="175.5" y="77.5" font-family="Inter, -apple-system, system-ui, sans-serif" font-size="10" font-weight="600" fill="#2f9e6b" text-anchor="middle" >CANVAS TO PAPER</text><rect x="120" y="100" width="460" height="20" fill="#d4d4d4" rx="10" /><rect x="120" y="140" width="368" height="9" fill="#e5e5e5" rx="5" /><rect x="120" y="158" width="248" height="9" fill="#e5e5e5" rx="5" /><text x="120" y="208" font-family="Inter, -apple-system, system-ui, sans-serif" font-size="11.5" font-weight="600" fill="#019A99" text-anchor="start" >Propose outline from board</text><rect x="120" y="240" width="552" height="270" fill="#f5f5f5" rx="12" /><circle cx="142" cy="262" r="1" fill="#d4d4d4"/><circle cx="142" cy="284" r="1" fill="#d4d4d4"/><circle cx="142" cy="306" r="1" fill="#d4d4d4"/><circle cx="142" cy="328" r="1" fill="#d4d4d4"/><circle cx="142" cy="350" r="1" fill="#d4d4d4"/><circle cx="142" cy="372" r="1" fill="#d4d4d4"/><circle cx="142" cy="394" r="1" fill="#d4d4d4"/><circle cx="142" cy="416" r="1" fill="#d4d4d4"/><circle cx="142" cy="438" r="1" fill="#d4d4d4"/><circle cx="142" cy="460" r="1" fill="#d4d4d4"/><circle cx="142" cy="482" r="1" fill="#d4d4d4"/><circle cx="142" cy="504" r="1" fill="#d4d4d4"/><circle cx="164" cy="262" r="1" fill="#d4d4d4"/><circle cx="164" cy="284" r="1" fill="#d4d4d4"/><circle cx="164" cy="306" r="1" fill="#d4d4d4"/><circle cx="164" cy="328" r="1" fill="#d4d4d4"/><circle cx="164" cy="350" r="1" fill="#d4d4d4"/><circle cx="164" cy="372" r="1" fill="#d4d4d4"/><circle cx="164" cy="394" r="1" fill="#d4d4d4"/><circle cx="164" cy="416" r="1" fill="#d4d4d4"/><circle cx="164" cy="438" r="1" fill="#d4d4d4"/><circle cx="164" cy="460" r="1" fill="#d4d4d4"/><circle cx="164" cy="482" r="1" fill="#d4d4d4"/><circle cx="164" cy="504" r="1" fill="#d4d4d4"/><circle cx="186" cy="262" r="1" fill="#d4d4d4"/><circle cx="186" cy="284" r="1" fill="#d4d4d4"/><circle cx="186" cy="306" r="1" fill="#d4d4d4"/><circle cx="186" cy="328" r="1" fill="#d4d4d4"/><circle cx="186" cy="350" r="1" fill="#d4d4d4"/><circle cx="186" cy="372" r="1" fill="#d4d4d4"/><circle cx="186" cy="394" r="1" fill="#d4d4d4"/><circle cx="186" cy="416" r="1" fill="#d4d4d4"/><circle cx="186" cy="438" r="1" fill="#d4d4d4"/><circle cx="186" cy="460" r="1" fill="#d4d4d4"/><circle cx="186" cy="482" r="1" fill="#d4d4d4"/><circle cx="186" cy="504" r="1" fill="#d4d4d4"/><circle cx="208" cy="262" r="1" fill="#d4d4d4"/><circle cx="208" cy="284" r="1" fill="#d4d4d4"/><circle cx="208" cy="306" r="1" fill="#d4d4d4"/><circle cx="208" cy="328" r="1" fill="#d4d4d4"/><circle cx="208" cy="350" r="1" fill="#d4d4d4"/><circle cx="208" cy="372" r="1" fill="#d4d4d4"/><circle cx="208" cy="394" r="1" fill="#d4d4d4"/><circle cx="208" cy="416" r="1" fill="#d4d4d4"/><circle cx="208" cy="438" r="1" fill="#d4d4d4"/><circle cx="208" cy="460" r="1" fill="#d4d4d4"/><circle cx="208" cy="482" r="1" fill="#d4d4d4"/><circle cx="208" cy="504" r="1" fill="#d4d4d4"/><circle cx="230" cy="262" r="1" fill="#d4d4d4"/><circle cx="230" cy="284" r="1" fill="#d4d4d4"/><circle cx="230" cy="306" r="1" fill="#d4d4d4"/><circle cx="230" cy="328" r="1" fill="#d4d4d4"/><circle cx="230" cy="350" r="1" fill="#d4d4d4"/><circle cx="230" cy="372" r="1" fill="#d4d4d4"/><circle cx="230" cy="394" r="1" fill="#d4d4d4"/><circle cx="230" cy="416" r="1" fill="#d4d4d4"/><circle cx="230" cy="438" r="1" fill="#d4d4d4"/><circle cx="230" cy="460" r="1" fill="#d4d4d4"/><circle cx="230" cy="482" r="1" fill="#d4d4d4"/><circle cx="230" cy="504" r="1" fill="#d4d4d4"/><circle cx="252" cy="262" r="1" fill="#d4d4d4"/><circle cx="252" cy="284" r="1" fill="#d4d4d4"/><circle cx="252" cy="306" r="1" fill="#d4d4d4"/><circle cx="252" cy="328" r="1" fill="#d4d4d4"/><circle cx="252" cy="350" r="1" fill="#d4d4d4"/><circle cx="252" cy="372" r="1" fill="#d4d4d4"/><circle cx="252" cy="394" r="1" fill="#d4d4d4"/><circle cx="252" cy="416" r="1" fill="#d4d4d4"/><circle cx="252" cy="438" r="1" fill="#d4d4d4"/><circle cx="252" cy="460" r="1" fill="#d4d4d4"/><circle cx="252" cy="482" r="1" fill="#d4d4d4"/><circle cx="252" cy="504" r="1" fill="#d4d4d4"/><circle cx="274" cy="262" r="1" fill="#d4d4d4"/><circle cx="274" cy="284" r="1" fill="#d4d4d4"/><circle cx="274" cy="306" r="1" fill="#d4d4d4"/><circle cx="274" cy="328" r="1" fill="#d4d4d4"/><circle cx="274" cy="350" r="1" fill="#d4d4d4"/><circle cx="274" cy="372" r="1" fill="#d4d4d4"/><circle cx="274" cy="394" r="1" fill="#d4d4d4"/><circle cx="274" cy="416" r="1" fill="#d4d4d4"/><circle cx="274" cy="438" r="1" fill="#d4d4d4"/><circle cx="274" cy="460" r="1" fill="#d4d4d4"/><circle cx="274" cy="482" r="1" fill="#d4d4d4"/><circle cx="274" cy="504" r="1" fill="#d4d4d4"/><circle cx="296" cy="262" r="1" fill="#d4d4d4"/><circle cx="296" cy="284" r="1" fill="#d4d4d4"/><circle cx="296" cy="306" r="1" fill="#d4d4d4"/><circle cx="296" cy="328" r="1" fill="#d4d4d4"/><circle cx="296" cy="350" r="1" fill="#d4d4d4"/><circle cx="296" cy="372" r="1" fill="#d4d4d4"/><circle cx="296" cy="394" r="1" fill="#d4d4d4"/><circle cx="296" cy="416" r="1" fill="#d4d4d4"/><circle cx="296" cy="438" r="1" fill="#d4d4d4"/><circle cx="296" cy="460" r="1" fill="#d4d4d4"/><circle cx="296" cy="482" r="1" fill="#d4d4d4"/><circle cx="296" cy="504" r="1" fill="#d4d4d4"/><circle cx="318" cy="262" r="1" fill="#d4d4d4"/><circle cx="318" cy="284" r="1" fill="#d4d4d4"/><circle cx="318" cy="306" r="1" fill="#d4d4d4"/><circle cx="318" cy="328" r="1" fill="#d4d4d4"/><circle cx="318" cy="350" r="1" fill="#d4d4d4"/><circle cx="318" cy="372" r="1" fill="#d4d4d4"/><circle cx="318" cy="394" r="1" fill="#d4d4d4"/><circle cx="318" cy="416" r="1" fill="#d4d4d4"/><circle cx="318" cy="438" r="1" fill="#d4d4d4"/><circle cx="318" cy="460" r="1" fill="#d4d4d4"/><circle cx="318" cy="482" r="1" fill="#d4d4d4"/><circle cx="318" cy="504" r="1" fill="#d4d4d4"/><circle cx="340" cy="262" r="1" fill="#d4d4d4"/><circle cx="340" cy="284" r="1" fill="#d4d4d4"/><circle cx="340" cy="306" r="1" fill="#d4d4d4"/><circle cx="340" cy="328" r="1" fill="#d4d4d4"/><circle cx="340" cy="350" r="1" fill="#d4d4d4"/><circle cx="340" cy="372" r="1" fill="#d4d4d4"/><circle cx="340" cy="394" r="1" fill="#d4d4d4"/><circle cx="340" cy="416" r="1" fill="#d4d4d4"/><circle cx="340" cy="438" r="1" fill="#d4d4d4"/><circle cx="340" cy="460" r="1" fill="#d4d4d4"/><circle cx="340" cy="482" r="1" fill="#d4d4d4"/><circle cx="340" cy="504" r="1" fill="#d4d4d4"/><circle cx="362" cy="262" r="1" fill="#d4d4d4"/><circle cx="362" cy="284" r="1" fill="#d4d4d4"/><circle cx="362" cy="306" r="1" fill="#d4d4d4"/><circle cx="362" cy="328" r="1" fill="#d4d4d4"/><circle cx="362" cy="350" r="1" fill="#d4d4d4"/><circle cx="362" cy="372" r="1" fill="#d4d4d4"/><circle cx="362" cy="394" r="1" fill="#d4d4d4"/><circle cx="362" cy="416" r="1" fill="#d4d4d4"/><circle cx="362" cy="438" r="1" fill="#d4d4d4"/><circle cx="362" cy="460" r="1" fill="#d4d4d4"/><circle cx="362" cy="482" r="1" fill="#d4d4d4"/><circle cx="362" cy="504" r="1" fill="#d4d4d4"/><circle cx="384" cy="262" r="1" fill="#d4d4d4"/><circle cx="384" cy="284" r="1" fill="#d4d4d4"/><circle cx="384" cy="306" r="1" fill="#d4d4d4"/><circle cx="384" cy="328" r="1" fill="#d4d4d4"/><circle cx="384" cy="350" r="1" fill="#d4d4d4"/><circle cx="384" cy="372" r="1" fill="#d4d4d4"/><circle cx="384" cy="394" r="1" fill="#d4d4d4"/><circle cx="384" cy="416" r="1" fill="#d4d4d4"/><circle cx="384" cy="438" r="1" fill="#d4d4d4"/><circle cx="384" cy="460" r="1" fill="#d4d4d4"/><circle cx="384" cy="482" r="1" fill="#d4d4d4"/><circle cx="384" cy="504" r="1" fill="#d4d4d4"/><circle cx="406" cy="262" r="1" fill="#d4d4d4"/><circle cx="406" cy="284" r="1" fill="#d4d4d4"/><circle cx="406" cy="306" r="1" fill="#d4d4d4"/><circle cx="406" cy="328" r="1" fill="#d4d4d4"/><circle cx="406" cy="350" r="1" fill="#d4d4d4"/><circle cx="406" cy="372" r="1" fill="#d4d4d4"/><circle cx="406" cy="394" r="1" fill="#d4d4d4"/><circle cx="406" cy="416" r="1" fill="#d4d4d4"/><circle cx="406" cy="438" r="1" fill="#d4d4d4"/><circle cx="406" cy="460" r="1" fill="#d4d4d4"/><circle cx="406" cy="482" r="1" fill="#d4d4d4"/><circle cx="406" cy="504" r="1" fill="#d4d4d4"/><circle cx="428" cy="262" r="1" fill="#d4d4d4"/><circle cx="428" cy="284" r="1" fill="#d4d4d4"/><circle cx="428" cy="306" r="1" fill="#d4d4d4"/><circle cx="428" cy="328" r="1" fill="#d4d4d4"/><circle cx="428" cy="350" r="1" fill="#d4d4d4"/><circle cx="428" cy="372" r="1" fill="#d4d4d4"/><circle cx="428" cy="394" r="1" fill="#d4d4d4"/><circle cx="428" cy="416" r="1" fill="#d4d4d4"/><circle cx="428" cy="438" r="1" fill="#d4d4d4"/><circle cx="428" cy="460" r="1" fill="#d4d4d4"/><circle cx="428" cy="482" r="1" fill="#d4d4d4"/><circle cx="428" cy="504" r="1" fill="#d4d4d4"/><circle cx="450" cy="262" r="1" fill="#d4d4d4"/><circle cx="450" cy="284" r="1" fill="#d4d4d4"/><circle cx="450" cy="306" r="1" fill="#d4d4d4"/><circle cx="450" cy="328" r="1" fill="#d4d4d4"/><circle cx="450" cy="350" r="1" fill="#d4d4d4"/><circle cx="450" cy="372" r="1" fill="#d4d4d4"/><circle cx="450" cy="394" r="1" fill="#d4d4d4"/><circle cx="450" cy="416" r="1" fill="#d4d4d4"/><circle cx="450" cy="438" r="1" fill="#d4d4d4"/><circle cx="450" cy="460" r="1" fill="#d4d4d4"/><circle cx="450" cy="482" r="1" fill="#d4d4d4"/><circle cx="450" cy="504" r="1" fill="#d4d4d4"/><circle cx="472" cy="262" r="1" fill="#d4d4d4"/><circle cx="472" cy="284" r="1" fill="#d4d4d4"/><circle cx="472" cy="306" r="1" fill="#d4d4d4"/><circle cx="472" cy="328" r="1" fill="#d4d4d4"/><circle cx="472" cy="350" r="1" fill="#d4d4d4"/><circle cx="472" cy="372" r="1" fill="#d4d4d4"/><circle cx="472" cy="394" r="1" fill="#d4d4d4"/><circle cx="472" cy="416" r="1" fill="#d4d4d4"/><circle cx="472" cy="438" r="1" fill="#d4d4d4"/><circle cx="472" cy="460" r="1" fill="#d4d4d4"/><circle cx="472" cy="482" r="1" fill="#d4d4d4"/><circle cx="472" cy="504" r="1" fill="#d4d4d4"/><circle cx="494" cy="262" r="1" fill="#d4d4d4"/><circle cx="494" cy="284" r="1" fill="#d4d4d4"/><circle cx="494" cy="306" r="1" fill="#d4d4d4"/><circle cx="494" cy="328" r="1" fill="#d4d4d4"/><circle cx="494" cy="350" r="1" fill="#d4d4d4"/><circle cx="494" cy="372" r="1" fill="#d4d4d4"/><circle cx="494" cy="394" r="1" fill="#d4d4d4"/><circle cx="494" cy="416" r="1" fill="#d4d4d4"/><circle cx="494" cy="438" r="1" fill="#d4d4d4"/><circle cx="494" cy="460" r="1" fill="#d4d4d4"/><circle cx="494" cy="482" r="1" fill="#d4d4d4"/><circle cx="494" cy="504" r="1" fill="#d4d4d4"/><circle cx="516" cy="262" r="1" fill="#d4d4d4"/><circle cx="516" cy="284" r="1" fill="#d4d4d4"/><circle cx="516" cy="306" r="1" fill="#d4d4d4"/><circle cx="516" cy="328" r="1" fill="#d4d4d4"/><circle cx="516" cy="350" r="1" fill="#d4d4d4"/><circle cx="516" cy="372" r="1" fill="#d4d4d4"/><circle cx="516" cy="394" r="1" fill="#d4d4d4"/><circle cx="516" cy="416" r="1" fill="#d4d4d4"/><circle cx="516" cy="438" r="1" fill="#d4d4d4"/><circle cx="516" cy="460" r="1" fill="#d4d4d4"/><circle cx="516" cy="482" r="1" fill="#d4d4d4"/><circle cx="516" cy="504" r="1" fill="#d4d4d4"/><circle cx="538" cy="262" r="1" fill="#d4d4d4"/><circle cx="538" cy="284" r="1" fill="#d4d4d4"/><circle cx="538" cy="306" r="1" fill="#d4d4d4"/><circle cx="538" cy="328" r="1" fill="#d4d4d4"/><circle cx="538" cy="350" r="1" fill="#d4d4d4"/><circle cx="538" cy="372" r="1" fill="#d4d4d4"/><circle cx="538" cy="394" r="1" fill="#d4d4d4"/><circle cx="538" cy="416" r="1" fill="#d4d4d4"/><circle cx="538" cy="438" r="1" fill="#d4d4d4"/><circle cx="538" cy="460" r="1" fill="#d4d4d4"/><circle cx="538" cy="482" r="1" fill="#d4d4d4"/><circle cx="538" cy="504" r="1" fill="#d4d4d4"/><circle cx="560" cy="262" r="1" fill="#d4d4d4"/><circle cx="560" cy="284" r="1" fill="#d4d4d4"/><circle cx="560" cy="306" r="1" fill="#d4d4d4"/><circle cx="560" cy="328" r="1" fill="#d4d4d4"/><circle cx="560" cy="350" r="1" fill="#d4d4d4"/><circle cx="560" cy="372" r="1" fill="#d4d4d4"/><circle cx="560" cy="394" r="1" fill="#d4d4d4"/><circle cx="560" cy="416" r="1" fill="#d4d4d4"/><circle cx="560" cy="438" r="1" fill="#d4d4d4"/><circle cx="560" cy="460" r="1" fill="#d4d4d4"/><circle cx="560" cy="482" r="1" fill="#d4d4d4"/><circle cx="560" cy="504" r="1" fill="#d4d4d4"/><circle cx="582" cy="262" r="1" fill="#d4d4d4"/><circle cx="582" cy="284" r="1" fill="#d4d4d4"/><circle cx="582" cy="306" r="1" fill="#d4d4d4"/><circle cx="582" cy="328" r="1" fill="#d4d4d4"/><circle cx="582" cy="350" r="1" fill="#d4d4d4"/><circle cx="582" cy="372" r="1" fill="#d4d4d4"/><circle cx="582" cy="394" r="1" fill="#d4d4d4"/><circle cx="582" cy="416" r="1" fill="#d4d4d4"/><circle cx="582" cy="438" r="1" fill="#d4d4d4"/><circle cx="582" cy="460" r="1" fill="#d4d4d4"/><circle cx="582" cy="482" r="1" fill="#d4d4d4"/><circle cx="582" cy="504" r="1" fill="#d4d4d4"/><circle cx="604" cy="262" r="1" fill="#d4d4d4"/><circle cx="604" cy="284" r="1" fill="#d4d4d4"/><circle cx="604" cy="306" r="1" fill="#d4d4d4"/><circle cx="604" cy="328" r="1" fill="#d4d4d4"/><circle cx="604" cy="350" r="1" fill="#d4d4d4"/><circle cx="604" cy="372" r="1" fill="#d4d4d4"/><circle cx="604" cy="394" r="1" fill="#d4d4d4"/><circle cx="604" cy="416" r="1" fill="#d4d4d4"/><circle cx="604" cy="438" r="1" fill="#d4d4d4"/><circle cx="604" cy="460" r="1" fill="#d4d4d4"/><circle cx="604" cy="482" r="1" fill="#d4d4d4"/><circle cx="604" cy="504" r="1" fill="#d4d4d4"/><circle cx="626" cy="262" r="1" fill="#d4d4d4"/><circle cx="626" cy="284" r="1" fill="#d4d4d4"/><circle cx="626" cy="306" r="1" fill="#d4d4d4"/><circle cx="626" cy="328" r="1" fill="#d4d4d4"/><circle cx="626" cy="350" r="1" fill="#d4d4d4"/><circle cx="626" cy="372" r="1" fill="#d4d4d4"/><circle cx="626" cy="394" r="1" fill="#d4d4d4"/><circle cx="626" cy="416" r="1" fill="#d4d4d4"/><circle cx="626" cy="438" r="1" fill="#d4d4d4"/><circle cx="626" cy="460" r="1" fill="#d4d4d4"/><circle cx="626" cy="482" r="1" fill="#d4d4d4"/><circle cx="626" cy="504" r="1" fill="#d4d4d4"/><circle cx="648" cy="262" r="1" fill="#d4d4d4"/><circle cx="648" cy="284" r="1" fill="#d4d4d4"/><circle cx="648" cy="306" r="1" fill="#d4d4d4"/><circle cx="648" cy="328" r="1" fill="#d4d4d4"/><circle cx="648" cy="350" r="1" fill="#d4d4d4"/><circle cx="648" cy="372" r="1" fill="#d4d4d4"/><circle cx="648" cy="394" r="1" fill="#d4d4d4"/><circle cx="648" cy="416" r="1" fill="#d4d4d4"/><circle cx="648" cy="438" r="1" fill="#d4d4d4"/><circle cx="648" cy="460" r="1" fill="#d4d4d4"/><circle cx="648" cy="482" r="1" fill="#d4d4d4"/><circle cx="648" cy="504" r="1" fill="#d4d4d4"/><circle cx="670" cy="262" r="1" fill="#d4d4d4"/><circle cx="670" cy="284" r="1" fill="#d4d4d4"/><circle cx="670" cy="306" r="1" fill="#d4d4d4"/><circle cx="670" cy="328" r="1" fill="#d4d4d4"/><circle cx="670" cy="350" r="1" fill="#d4d4d4"/><circle cx="670" cy="372" r="1" fill="#d4d4d4"/><circle cx="670" cy="394" r="1" fill="#d4d4d4"/><circle cx="670" cy="416" r="1" fill="#d4d4d4"/><circle cx="670" cy="438" r="1" fill="#d4d4d4"/><circle cx="670" cy="460" r="1" fill="#d4d4d4"/><circle cx="670" cy="482" r="1" fill="#d4d4d4"/><circle cx="670" cy="504" r="1" fill="#d4d4d4"/><circle cx="149" cy="269" r="2" fill="#d4d4d4"/><circle cx="155" cy="269" r="2" fill="#d4d4d4"/><circle cx="166" cy="269" r="4" fill="#8a5cd6"/><text x="176" y="273" font-family="Inter, -apple-system, system-ui, sans-serif" font-size="11" font-weight="600" fill="#737373" text-anchor="start" >Synthesize</text><rect x="144" y="280" width="432" height="74" fill="#ffffff" stroke="#e5e5e5" stroke-width="1" rx="10"/><rect x="156" y="292" width="375.36" height="7" fill="#e5e5e5" rx="5" /><rect x="156" y="306" width="252.96" height="7" fill="#e5e5e5" rx="5" /><rect x="156" y="324" width="31.200000000000003" height="16" fill="#e6f4f4" rx="4" /><text x="171.6" y="335.5" font-family="Inter, -apple-system, system-ui, sans-serif" font-size="9.5" font-weight="600" fill="#019A99" text-anchor="middle" >[1]</text><rect x="190" y="324" width="31.200000000000003" height="16" fill="#e6f4f4" rx="4" /><text x="205.6" y="335.5" font-family="Inter, -apple-system, system-ui, sans-serif" font-size="9.5" font-weight="600" fill="#019A99" text-anchor="middle" >[2]</text><rect x="224" y="324" width="31.200000000000003" height="16" fill="#e6f4f4" rx="4" /><text x="239.6" y="335.5" font-family="Inter, -apple-system, system-ui, sans-serif" font-size="9.5" font-weight="600" fill="#019A99" text-anchor="middle" >[3]</text><circle cx="185" cy="381" r="2" fill="#d4d4d4"/><circle cx="191" cy="381" r="2" fill="#d4d4d4"/><circle cx="202" cy="381" r="4" fill="#3d74c6"/><text x="212" y="385" font-family="Inter, -apple-system, system-ui, sans-serif" font-size="11" font-weight="600" fill="#737373" text-anchor="start" >Sources</text><rect x="180" y="392" width="402" height="64" fill="#ffffff" stroke="#e5e5e5" stroke-width="1" rx="10"/><rect x="192" y="404" width="347.76" height="7" fill="#e5e5e5" rx="5" /><rect x="192" y="418" width="234.35999999999999" height="7" fill="#e5e5e5" rx="5" /><path d="M 680 375 l 34 0 m -8 -8 l 8 8 l -8 8" stroke="#171717" stroke-width="2" fill="none" stroke-linecap="round" stroke-linejoin="round"/><text x="696" y="359" font-family="Inter, -apple-system, system-ui, sans-serif" font-size="11" font-weight="600" fill="#171717" text-anchor="middle" >Compose</text><rect x="784" y="240" width="536" height="270" fill="#ffffff" stroke="#e5e5e5" stroke-width="1" rx="12"/><rect x="808" y="266" width="268" height="14" fill="#d4d4d4" rx="5" /><line x1="808" y1="294" x2="1296" y2="294" stroke="#e5e5e5" stroke-width="1"/><rect x="808" y="310" width="192.95999999999998" height="11" fill="#a3a3a3" rx="5" /><rect x="808" y="332" width="448.96000000000004" height="8" fill="#e5e5e5" rx="5" /><rect x="808" y="348" width="302.56" height="8" fill="#e5e5e5" rx="5" /><rect x="1061.76" y="345" width="31.200000000000003" height="16" fill="#e6f4f4" rx="4" /><text x="1077.36" y="356.5" font-family="Inter, -apple-system, system-ui, sans-serif" font-size="9.5" font-weight="600" fill="#019A99" text-anchor="middle" >[1]</text><rect x="808" y="382" width="225.12" height="11" fill="#a3a3a3" rx="5" /><rect x="808" y="404" width="448.96000000000004" height="8" fill="#e5e5e5" rx="5" /><rect x="808" y="420" width="488" height="8" fill="#e5e5e5" rx="5" /><rect x="808" y="436" width="302.56" height="8" fill="#e5e5e5" rx="5" /><rect x="954.4" y="417" width="31.200000000000003" height="16" fill="#e6f4f4" rx="4" /><text x="970" y="428.5" font-family="Inter, -apple-system, system-ui, sans-serif" font-size="9.5" font-weight="600" fill="#019A99" text-anchor="middle" >[2]</text><rect x="1174" y="433" width="31.200000000000003" height="16" fill="#e6f4f4" rx="4" /><text x="1189.6" y="444.5" font-family="Inter, -apple-system, system-ui, sans-serif" font-size="9.5" font-weight="600" fill="#019A99" text-anchor="middle" >[3]</text></svg>