<svg xmlns="http://www.w3.org/2000/svg" width="1440" height="420" viewBox="0 0 1440 420">
<rect x="0" y="0" width="1440" height="420" fill="#ffffff" rx="0" />
<rect x="120" y="70" width="160.6" height="20" fill="#e6f4f4" rx="10" /><text x="200.3" y="83.5" font-family="Inter, -apple-system, system-ui, sans-serif" font-size="10" font-weight="600" fill="#019A99" text-anchor="middle" >EVERY CLAIM TRACES BACK</text><rect x="120" y="108" width="420" height="20" fill="#d4d4d4" rx="10" /><rect x="120" y="148" width="349.6" height="9" fill="#e5e5e5" rx="5" /><rect x="120" y="166" width="380" height="9" fill="#e5e5e5" rx="5" /><rect x="120" y="184" width="235.6" height="9" fill="#e5e5e5" rx="5" /><rect x="640" y="90" width="420" height="150" fill="#ffffff" stroke="#e5e5e5" stroke-width="1" rx="12"/><rect x="664" y="118" width="342.24" height="9" fill="#e5e5e5" rx="5" /><rect x="664" y="136" width="230.64" height="9" fill="#e5e5e5" rx="5" /><rect x="831.4" y="134" width="31.200000000000003" height="16" fill="#e6f4f4" rx="4" /><text x="847" y="145.5" font-family="Inter, -apple-system, system-ui, sans-serif" font-size="9.5" font-weight="600" fill="#019A99" text-anchor="middle" >[1]</text><rect x="664" y="166" width="342.24" height="9" fill="#e5e5e5" rx="5" /><rect x="664" y="184" width="230.64" height="9" fill="#e5e5e5" rx="5" /><rect x="1140" y="120" width="240" height="110" fill="#ffffff" stroke="#e5e5e5" stroke-width="1" rx="12"/><circle cx="1164" cy="146" r="5" fill="#3d74c6"/><rect x="1178" y="141" width="160" height="9" fill="#d4d4d4" rx="5" /><rect x="1164" y="166" width="174.8" height="7" fill="#e5e5e5" rx="5" /><rect x="1164" y="180" width="117.8" height="7" fill="#e5e5e5" rx="5" /><rect x="1164" y="198" width="86.2" height="20" fill="#e7f5ee" rx="10" /><text x="1207.1" y="211.5" font-family="Inter, -apple-system, system-ui, sans-serif" font-size="10" font-weight="600" fill="#2f9e6b" text-anchor="middle" >OPEN ACCESS</text><path d="M 861.4 142 C 1060 130, 1090 160, 1140 170" stroke="#019A99" stroke-width="1.5" fill="none" stroke-dasharray="4 4"/></svg>