<svg xmlns="http://www.w3.org/2000/svg" width="1440" height="420" viewBox="0 0 1440 420">
<rect x="0" y="0" width="1440" height="420" fill="#ffffff" rx="0" />
<text x="720" y="64" font-family="Inter, -apple-system, system-ui, sans-serif" font-size="10" font-weight="700" fill="#019A99" text-anchor="middle" letter-spacing="2">YOUR RESEARCH AGENTS</text><rect x="560" y="86" width="320" height="18" fill="#d4d4d4" rx="9" /><rect x="110" y="140" width="220" height="210" fill="#ffffff" stroke="#e5e5e5" stroke-width="1" rx="12"/><rect x="130" y="162" width="34" height="34" fill="#f0f7f7" rx="9" /><circle cx="147" cy="179" r="6" fill="#3d74c6"/><rect x="260" y="168" width="67.6" height="20" fill="#f4f4f5" rx="10" /><text x="293.8" y="181.5" font-family="Inter, -apple-system, system-ui, sans-serif" font-size="10" font-weight="600" fill="#737373" text-anchor="middle" >Built-in</text><text x="130" y="226" font-family="Inter, -apple-system, system-ui, sans-serif" font-size="14" font-weight="600" fill="#171717" text-anchor="start" >Scout</text><rect x="130" y="244" width="165.6" height="7" fill="#e5e5e5" rx="5" /><rect x="130" y="258" width="180" height="7" fill="#e5e5e5" rx="5" /><rect x="130" y="272" width="111.6" height="7" fill="#e5e5e5" rx="5" /><text x="130" y="322" font-family="Inter, -apple-system, system-ui, sans-serif" font-size="11" font-weight="600" fill="#737373" text-anchor="start" >Configure</text><rect x="360" y="140" width="220" height="210" fill="#ffffff" stroke="#e5e5e5" stroke-width="1" rx="12"/><rect x="380" y="162" width="34" height="34" fill="#f0f7f7" rx="9" /><circle cx="397" cy="179" r="6" fill="#8a5cd6"/><rect x="510" y="168" width="67.6" height="20" fill="#f4f4f5" rx="10" /><text x="543.8" y="181.5" font-family="Inter, -apple-system, system-ui, sans-serif" font-size="10" font-weight="600" fill="#737373" text-anchor="middle" >Built-in</text><text x="380" y="226" font-family="Inter, -apple-system, system-ui, sans-serif" font-size="14" font-weight="600" fill="#171717" text-anchor="start" >Synthesizer</text><rect x="380" y="244" width="165.6" height="7" fill="#e5e5e5" rx="5" /><rect x="380" y="258" width="180" height="7" fill="#e5e5e5" rx="5" /><rect x="380" y="272" width="111.6" height="7" fill="#e5e5e5" rx="5" /><text x="380" y="322" font-family="Inter, -apple-system, system-ui, sans-serif" font-size="11" font-weight="600" fill="#737373" text-anchor="start" >Configure</text><rect x="610" y="140" width="220" height="210" fill="#ffffff" stroke="#e5e5e5" stroke-width="1" rx="12"/><rect x="630" y="162" width="34" height="34" fill="#f0f7f7" rx="9" /><circle cx="647" cy="179" r="6" fill="#2f9e6b"/><rect x="760" y="168" width="67.6" height="20" fill="#f4f4f5" rx="10" /><text x="793.8" y="181.5" font-family="Inter, -apple-system, system-ui, sans-serif" font-size="10" font-weight="600" fill="#737373" text-anchor="middle" >Built-in</text><text x="630" y="226" font-family="Inter, -apple-system, system-ui, sans-serif" font-size="14" font-weight="600" fill="#171717" text-anchor="start" >Stylist</text><rect x="630" y="244" width="165.6" height="7" fill="#e5e5e5" rx="5" /><rect x="630" y="258" width="180" height="7" fill="#e5e5e5" rx="5" /><rect x="630" y="272" width="111.6" height="7" fill="#e5e5e5" rx="5" /><text x="630" y="322" font-family="Inter, -apple-system, system-ui, sans-serif" font-size="11" font-weight="600" fill="#737373" text-anchor="start" >Configure</text><rect x="860" y="140" width="220" height="210" fill="#ffffff" stroke="#e5e5e5" stroke-width="1" rx="12"/><rect x="880" y="162" width="34" height="34" fill="#f0f7f7" rx="9" /><circle cx="897" cy="179" r="6" fill="#d9952b"/><rect x="1010" y="168" width="67.6" height="20" fill="#f4f4f5" rx="10" /><text x="1043.8" y="181.5" font-family="Inter, -apple-system, system-ui, sans-serif" font-size="10" font-weight="600" fill="#737373" text-anchor="middle" >Built-in</text><text x="880" y="226" font-family="Inter, -apple-system, system-ui, sans-serif" font-size="14" font-weight="600" fill="#171717" text-anchor="start" >Citationist</text><rect x="880" y="244" width="165.6" height="7" fill="#e5e5e5" rx="5" /><rect x="880" y="258" width="180" height="7" fill="#e5e5e5" rx="5" /><rect x="880" y="272" width="111.6" height="7" fill="#e5e5e5" rx="5" /><text x="880" y="322" font-family="Inter, -apple-system, system-ui, sans-serif" font-size="11" font-weight="600" fill="#737373" text-anchor="start" >Configure</text><rect x="1110" y="140" width="220" height="210" fill="#ffffff" stroke="#e5e5e5" stroke-width="1" rx="12"/><rect x="1130" y="162" width="34" height="34" fill="#f0f7f7" rx="9" /><circle cx="1147" cy="179" r="6" fill="#019A99"/><rect x="1260" y="168" width="67.6" height="20" fill="#f4f4f5" rx="10" /><text x="1293.8" y="181.5" font-family="Inter, -apple-system, system-ui, sans-serif" font-size="10" font-weight="600" fill="#737373" text-anchor="middle" >Built-in</text><text x="1130" y="226" font-family="Inter, -apple-system, system-ui, sans-serif" font-size="14" font-weight="600" fill="#171717" text-anchor="start" >Assistant</text><rect x="1130" y="244" width="165.6" height="7" fill="#e5e5e5" rx="5" /><rect x="1130" y="258" width="180" height="7" fill="#e5e5e5" rx="5" /><rect x="1130" y="272" width="111.6" height="7" fill="#e5e5e5" rx="5" /><text x="1130" y="322" font-family="Inter, -apple-system, system-ui, sans-serif" font-size="11" font-weight="600" fill="#737373" text-anchor="start" >Configure</text></svg>