<svg xmlns="http://www.w3.org/2000/svg" width="1440" height="460" viewBox="0 0 1440 460">
<rect x="0" y="0" width="1440" height="460" fill="#ffffff" rx="0" />
<rect x="120" y="70" width="148.20000000000002" height="20" fill="#eaf1f4" rx="10" /><text x="194.10000000000002" y="83.5" font-family="Inter, -apple-system, system-ui, sans-serif" font-size="10" font-weight="600" fill="#2A5C6F" text-anchor="middle" >WORKS WHILE YOU SLEEP</text><rect x="120" y="108" width="440" height="20" fill="#d4d4d4" rx="10" /><rect x="120" y="148" width="349.6" height="9" fill="#e5e5e5" rx="5" /><rect x="120" y="166" width="380" height="9" fill="#e5e5e5" rx="5" /><rect x="120" y="184" width="235.6" height="9" fill="#e5e5e5" rx="5" /><text x="120" y="234" font-family="Inter, -apple-system, system-ui, sans-serif" font-size="11.5" font-weight="600" fill="#019A99" text-anchor="start" >Add watch</text><rect x="640" y="80" width="680" height="84" fill="#ffffff" stroke="#e5e5e5" stroke-width="1" rx="12"/><circle cx="670" cy="122" r="6" fill="#3d74c6"/><rect x="690" y="116" width="300" height="10" fill="#d4d4d4" rx="5" /><rect x="1020" y="112" width="49" height="20" fill="#f4f4f5" rx="10" /><text x="1044.5" y="125.5" font-family="Inter, -apple-system, system-ui, sans-serif" font-size="10" font-weight="600" fill="#737373" text-anchor="middle" >Daily</text><rect x="1200" y="103" width="96" height="38" fill="#ffffff" stroke="#e5e5e5" stroke-width="1" rx="8"/><text x="1248" y="127" font-family="Inter, -apple-system, system-ui, sans-serif" font-size="13" font-weight="500" fill="#171717" text-anchor="middle" >Run now</text><text x="640" y="200" font-family="Inter, -apple-system, system-ui, sans-serif" font-size="10" font-weight="700" fill="#a3a3a3" text-anchor="start" letter-spacing="2">NEW FINDINGS</text><rect x="640" y="216" width="680" height="54" fill="#ffffff" stroke="#e5e5e5" stroke-width="1" rx="10"/><rect x="656" y="233" width="30.4" height="20" fill="#e7f5ee" rx="10" /><text x="671.2" y="246.5" font-family="Inter, -apple-system, system-ui, sans-serif" font-size="10" font-weight="600" fill="#2f9e6b" text-anchor="middle" >88</text><rect x="706" y="230" width="380" height="9" fill="#d4d4d4" rx="5" /><rect x="706" y="248" width="240" height="7" fill="#e5e5e5" rx="5" /><circle cx="1260" cy="243" r="9" fill="#e7f5ee"/><circle cx="1290" cy="243" r="9" fill="#f4f4f5"/><rect x="640" y="282" width="680" height="54" fill="#ffffff" stroke="#e5e5e5" stroke-width="1" rx="10"/><rect x="656" y="299" width="30.4" height="20" fill="#e7f5ee" rx="10" /><text x="671.2" y="312.5" font-family="Inter, -apple-system, system-ui, sans-serif" font-size="10" font-weight="600" fill="#2f9e6b" text-anchor="middle" >82</text><rect x="706" y="296" width="380" height="9" fill="#d4d4d4" rx="5" /><rect x="706" y="314" width="240" height="7" fill="#e5e5e5" rx="5" /><circle cx="1260" cy="309" r="9" fill="#e7f5ee"/><circle cx="1290" cy="309" r="9" fill="#f4f4f5"/><rect x="640" y="348" width="680" height="54" fill="#ffffff" stroke="#e5e5e5" stroke-width="1" rx="10"/><rect x="656" y="365" width="30.4" height="20" fill="#e7f5ee" rx="10" /><text x="671.2" y="378.5" font-family="Inter, -apple-system, system-ui, sans-serif" font-size="10" font-weight="600" fill="#2f9e6b" text-anchor="middle" >76</text><rect x="706" y="362" width="380" height="9" fill="#d4d4d4" rx="5" /><rect x="706" y="380" width="240" height="7" fill="#e5e5e5" rx="5" /><circle cx="1260" cy="375" r="9" fill="#e7f5ee"/><circle cx="1290" cy="375" r="9" fill="#f4f4f5"/></svg>