<svg xmlns="http://www.w3.org/2000/svg" width="1440" height="440" viewBox="0 0 1440 440">
<rect x="0" y="0" width="1440" height="440" fill="#ffffff" rx="0" />
<rect x="120" y="70" width="160.6" height="20" fill="#f1eafe" rx="10" /><text x="200.3" y="83.5" font-family="Inter, -apple-system, system-ui, sans-serif" font-size="10" font-weight="600" fill="#8a5cd6" text-anchor="middle" >FIND WHAT KEYWORDS MISS</text><rect x="120" y="108" width="430" height="20" fill="#d4d4d4" rx="10" /><rect x="120" y="148" width="349.6" height="9" fill="#e5e5e5" rx="5" /><rect x="120" y="166" width="380" height="9" fill="#e5e5e5" rx="5" /><rect x="120" y="184" width="235.6" height="9" fill="#e5e5e5" rx="5" /><rect x="640" y="80" width="680" height="150" fill="#ffffff" stroke="#e5e5e5" stroke-width="1" rx="12"/><rect x="660" y="100" width="560" height="40" fill="#fafafa" stroke="#e5e5e5" stroke-width="1" rx="8"/><circle cx="680" cy="120" r="5" fill="#a3a3a3"/><rect x="696" y="116" width="300" height="9" fill="#d4d4d4" rx="5" /><rect x="1240" y="100" width="60" height="40" fill="#171717" rx="8" /><text x="1270" y="124" font-family="Inter, -apple-system, system-ui, sans-serif" font-size="11" font-weight="600" fill="#ffffff" text-anchor="middle" >Search</text><rect x="660" y="156" width="36.6" height="20" fill="#e9f0fa" rx="10" /><text x="678.3" y="169.5" font-family="Inter, -apple-system, system-ui, sans-serif" font-size="10" font-weight="600" fill="#3d74c6" text-anchor="middle" >94%</text><rect x="718" y="161" width="420" height="9" fill="#d4d4d4" rx="5" /><rect x="660" y="190" width="36.6" height="20" fill="#e9f0fa" rx="10" /><text x="678.3" y="203.5" font-family="Inter, -apple-system, system-ui, sans-serif" font-size="10" font-weight="600" fill="#3d74c6" text-anchor="middle" >85%</text><rect x="718" y="195" width="360" height="9" fill="#d4d4d4" rx="5" /><text x="640" y="262" font-family="Inter, -apple-system, system-ui, sans-serif" font-size="10" font-weight="700" fill="#a3a3a3" text-anchor="start" letter-spacing="2">FIGURE SEARCH</text><rect x="640" y="276" width="120" height="96" fill="#f4f4f5" stroke="#e5e5e5" stroke-width="1" rx="8"/><path d="M 664 340 l 22 -26 l 18 16 l 14 -12 l 20 22" stroke="#a3a3a3" stroke-width="2" fill="none" stroke-linejoin="round"/><circle cx="674" cy="300" r="6" fill="#d4d4d4"/><rect x="714" y="282" width="36.6" height="20" fill="#e6f4f8" rx="10" /><text x="732.3" y="295.5" font-family="Inter, -apple-system, system-ui, sans-serif" font-size="10" font-weight="600" fill="#2aa3c0" text-anchor="middle" >91%</text><rect x="780" y="276" width="120" height="96" fill="#f4f4f5" stroke="#e5e5e5" stroke-width="1" rx="8"/><path d="M 804 340 l 22 -26 l 18 16 l 14 -12 l 20 22" stroke="#a3a3a3" stroke-width="2" fill="none" stroke-linejoin="round"/><circle cx="814" cy="300" r="6" fill="#d4d4d4"/><rect x="854" y="282" width="36.6" height="20" fill="#e6f4f8" rx="10" /><text x="872.3" y="295.5" font-family="Inter, -apple-system, system-ui, sans-serif" font-size="10" font-weight="600" fill="#2aa3c0" text-anchor="middle" >84%</text><rect x="920" y="276" width="120" height="96" fill="#f4f4f5" stroke="#e5e5e5" stroke-width="1" rx="8"/><path d="M 944 340 l 22 -26 l 18 16 l 14 -12 l 20 22" stroke="#a3a3a3" stroke-width="2" fill="none" stroke-linejoin="round"/><circle cx="954" cy="300" r="6" fill="#d4d4d4"/><rect x="994" y="282" width="36.6" height="20" fill="#e6f4f8" rx="10" /><text x="1012.3" y="295.5" font-family="Inter, -apple-system, system-ui, sans-serif" font-size="10" font-weight="600" fill="#2aa3c0" text-anchor="middle" >77%</text><rect x="1060" y="276" width="120" height="96" fill="#f4f4f5" stroke="#e5e5e5" stroke-width="1" rx="8"/><path d="M 1084 340 l 22 -26 l 18 16 l 14 -12 l 20 22" stroke="#a3a3a3" stroke-width="2" fill="none" stroke-linejoin="round"/><circle cx="1094" cy="300" r="6" fill="#d4d4d4"/><rect x="1134" y="282" width="36.6" height="20" fill="#e6f4f8" rx="10" /><text x="1152.3" y="295.5" font-family="Inter, -apple-system, system-ui, sans-serif" font-size="10" font-weight="600" fill="#2aa3c0" text-anchor="middle" >70%</text><rect x="1200" y="276" width="120" height="96" fill="#f4f4f5" stroke="#e5e5e5" stroke-width="1" rx="8"/><path d="M 1224 340 l 22 -26 l 18 16 l 14 -12 l 20 22" stroke="#a3a3a3" stroke-width="2" fill="none" stroke-linejoin="round"/><circle cx="1234" cy="300" r="6" fill="#d4d4d4"/><rect x="1274" y="282" width="36.6" height="20" fill="#e6f4f8" rx="10" /><text x="1292.3" y="295.5" font-family="Inter, -apple-system, system-ui, sans-serif" font-size="10" font-weight="600" fill="#2aa3c0" text-anchor="middle" >63%</text></svg>