<svg xmlns="http://www.w3.org/2000/svg" width="1440" height="380" viewBox="0 0 1440 380">
<rect x="0" y="0" width="1440" height="380" fill="#ffffff" rx="0" />
<rect x="120" y="70" width="111" height="20" fill="#e7f5ee" rx="10" /><text x="175.5" y="83.5" font-family="Inter, -apple-system, system-ui, sans-serif" font-size="10" font-weight="600" fill="#2f9e6b" text-anchor="middle" >WRITES LIKE YOU</text><rect x="120" y="108" width="380" height="20" fill="#d4d4d4" rx="10" /><rect x="120" y="148" width="349.6" height="9" fill="#e5e5e5" rx="5" /><rect x="120" y="166" width="380" height="9" fill="#e5e5e5" rx="5" /><rect x="120" y="184" width="235.6" height="9" fill="#e5e5e5" rx="5" /><rect x="640" y="80" width="680" height="220" fill="#ffffff" stroke="#e5e5e5" stroke-width="1" rx="12"/><text x="664" y="112" font-family="Inter, -apple-system, system-ui, sans-serif" font-size="14" font-weight="600" fill="#171717" text-anchor="start" >Writing voice</text><rect x="1220" y="96" width="61.4" height="20" fill="#e7f5ee" rx="10" /><text x="1250.7" y="109.5" font-family="Inter, -apple-system, system-ui, sans-serif" font-size="10" font-weight="600" fill="#2f9e6b" text-anchor="middle" >Trained</text><rect x="664" y="132" width="632" height="36" fill="#fafafa" stroke="#e5e5e5" stroke-width="1" rx="8"/><circle cx="682" cy="150" r="4" fill="#a3a3a3"/><rect x="696" y="145" width="260" height="8" fill="#d4d4d4" rx="5" /><rect x="1180" y="145" width="90" height="8" fill="#e5e5e5" rx="5" /><rect x="664" y="178" width="632" height="36" fill="#fafafa" stroke="#e5e5e5" stroke-width="1" rx="8"/><circle cx="682" cy="196" r="4" fill="#a3a3a3"/><rect x="696" y="191" width="260" height="8" fill="#d4d4d4" rx="5" /><rect x="1180" y="191" width="90" height="8" fill="#e5e5e5" rx="5" /><rect x="664" y="236" width="140" height="38" fill="#171717" rx="8" /><text x="734" y="260" font-family="Inter, -apple-system, system-ui, sans-serif" font-size="13" font-weight="600" fill="#ffffff" text-anchor="middle" >Train my voice</text><text x="824" y="259" font-family="Inter, -apple-system, system-ui, sans-serif" font-size="11" font-weight="500" fill="#737373" text-anchor="start" >Tab to accept suggestions while you write</text></svg>