<svg xmlns="http://www.w3.org/2000/svg" width="1440" height="260" viewBox="0 0 1440 260">
<rect x="0" y="0" width="1440" height="260" fill="#fafafa" rx="0" />
<rect x="150" y="80" width="110" height="34" fill="#019A99" rx="8" /><rect x="150" y="132" width="180" height="10" fill="#d4d4d4" rx="5" /><rect x="150" y="152" width="140" height="8" fill="#e5e5e5" rx="5" /><rect x="450" y="80" width="110" height="34" fill="#019A99" rx="8" /><rect x="450" y="132" width="180" height="10" fill="#d4d4d4" rx="5" /><rect x="450" y="152" width="140" height="8" fill="#e5e5e5" rx="5" /><rect x="750" y="80" width="110" height="34" fill="#019A99" rx="8" /><rect x="750" y="132" width="180" height="10" fill="#d4d4d4" rx="5" /><rect x="750" y="152" width="140" height="8" fill="#e5e5e5" rx="5" /><rect x="1050" y="80" width="110" height="34" fill="#019A99" rx="8" /><rect x="1050" y="132" width="180" height="10" fill="#d4d4d4" rx="5" /><rect x="1050" y="152" width="140" height="8" fill="#e5e5e5" rx="5" /><line x1="0" y1="1" x2="1440" y2="1" stroke="#e5e5e5" stroke-width="1"/><line x1="0" y1="259" x2="1440" y2="259" stroke="#e5e5e5" stroke-width="1"/></svg>