<svg xmlns="http://www.w3.org/2000/svg" width="1440" height="480" viewBox="0 0 1440 480">
<rect x="0" y="0" width="1440" height="480" fill="#ffffff" rx="0" />
<text x="720" y="64" font-family="Inter, -apple-system, system-ui, sans-serif" font-size="10" font-weight="700" fill="#019A99" text-anchor="middle" letter-spacing="2">WHY A CANVAS</text><rect x="560" y="86" width="320" height="18" fill="#d4d4d4" rx="9" /><rect x="160" y="140" width="500" height="280" fill="#fafafa" stroke="#e5e5e5" stroke-width="1" rx="12"/><text x="184" y="172" font-family="Inter, -apple-system, system-ui, sans-serif" font-size="13" font-weight="600" fill="#737373" text-anchor="start" >Document tools</text><rect x="184" y="192" width="452" height="8" fill="#e5e5e5" rx="5" /><rect x="184" y="216" width="412" height="8" fill="#e5e5e5" rx="5" /><rect x="184" y="240" width="372" height="8" fill="#e5e5e5" rx="5" /><rect x="184" y="264" width="452" height="8" fill="#e5e5e5" rx="5" /><rect x="184" y="288" width="412" height="8" fill="#e5e5e5" rx="5" /><rect x="184" y="312" width="372" height="8" fill="#e5e5e5" rx="5" /><rect x="184" y="336" width="452" height="8" fill="#e5e5e5" rx="5" /><rect x="184" y="360" width="412" height="8" fill="#e5e5e5" rx="5" /><rect x="184" y="384" width="372" height="8" fill="#e5e5e5" rx="5" /><line x1="185" y1="150" x2="635" y2="410" stroke="#d4d4d4" stroke-width="1"/><rect x="780" y="140" width="500" height="280" fill="#ffffff" stroke="#019A99" stroke-width="1.5" rx="12"/><text x="804" y="172" font-family="Inter, -apple-system, system-ui, sans-serif" font-size="13" font-weight="700" fill="#019A99" text-anchor="start" >ProfJohns</text><rect x="804" y="188" width="452" height="208" fill="#f5f5f5" rx="12" /><circle cx="824" cy="208" r="1" fill="#d4d4d4"/><circle cx="824" cy="228" r="1" fill="#d4d4d4"/><circle cx="824" cy="248" r="1" fill="#d4d4d4"/><circle cx="824" cy="268" r="1" fill="#d4d4d4"/><circle cx="824" cy="288" r="1" fill="#d4d4d4"/><circle cx="824" cy="308" r="1" fill="#d4d4d4"/><circle cx="824" cy="328" r="1" fill="#d4d4d4"/><circle cx="824" cy="348" r="1" fill="#d4d4d4"/><circle cx="824" cy="368" r="1" fill="#d4d4d4"/><circle cx="824" cy="388" r="1" fill="#d4d4d4"/><circle cx="844" cy="208" r="1" fill="#d4d4d4"/><circle cx="844" cy="228" r="1" fill="#d4d4d4"/><circle cx="844" cy="248" r="1" fill="#d4d4d4"/><circle cx="844" cy="268" r="1" fill="#d4d4d4"/><circle cx="844" cy="288" r="1" fill="#d4d4d4"/><circle cx="844" cy="308" r="1" fill="#d4d4d4"/><circle cx="844" cy="328" r="1" fill="#d4d4d4"/><circle cx="844" cy="348" r="1" fill="#d4d4d4"/><circle cx="844" cy="368" r="1" fill="#d4d4d4"/><circle cx="844" cy="388" r="1" fill="#d4d4d4"/><circle cx="864" cy="208" r="1" fill="#d4d4d4"/><circle cx="864" cy="228" r="1" fill="#d4d4d4"/><circle cx="864" cy="248" r="1" fill="#d4d4d4"/><circle cx="864" cy="268" r="1" fill="#d4d4d4"/><circle cx="864" cy="288" r="1" fill="#d4d4d4"/><circle cx="864" cy="308" r="1" fill="#d4d4d4"/><circle cx="864" cy="328" r="1" fill="#d4d4d4"/><circle cx="864" cy="348" r="1" fill="#d4d4d4"/><circle cx="864" cy="368" r="1" fill="#d4d4d4"/><circle cx="864" cy="388" r="1" fill="#d4d4d4"/><circle cx="884" cy="208" r="1" fill="#d4d4d4"/><circle cx="884" cy="228" r="1" fill="#d4d4d4"/><circle cx="884" cy="248" r="1" fill="#d4d4d4"/><circle cx="884" cy="268" r="1" fill="#d4d4d4"/><circle cx="884" cy="288" r="1" fill="#d4d4d4"/><circle cx="884" cy="308" r="1" fill="#d4d4d4"/><circle cx="884" cy="328" r="1" fill="#d4d4d4"/><circle cx="884" cy="348" r="1" fill="#d4d4d4"/><circle cx="884" cy="368" r="1" fill="#d4d4d4"/><circle cx="884" cy="388" r="1" fill="#d4d4d4"/><circle cx="904" cy="208" r="1" fill="#d4d4d4"/><circle cx="904" cy="228" r="1" fill="#d4d4d4"/><circle cx="904" cy="248" r="1" fill="#d4d4d4"/><circle cx="904" cy="268" r="1" fill="#d4d4d4"/><circle cx="904" cy="288" r="1" fill="#d4d4d4"/><circle cx="904" cy="308" r="1" fill="#d4d4d4"/><circle cx="904" cy="328" r="1" fill="#d4d4d4"/><circle cx="904" cy="348" r="1" fill="#d4d4d4"/><circle cx="904" cy="368" r="1" fill="#d4d4d4"/><circle cx="904" cy="388" r="1" fill="#d4d4d4"/><circle cx="924" cy="208" r="1" fill="#d4d4d4"/><circle cx="924" cy="228" r="1" fill="#d4d4d4"/><circle cx="924" cy="248" r="1" fill="#d4d4d4"/><circle cx="924" cy="268" r="1" fill="#d4d4d4"/><circle cx="924" cy="288" r="1" fill="#d4d4d4"/><circle cx="924" cy="308" r="1" fill="#d4d4d4"/><circle cx="924" cy="328" r="1" fill="#d4d4d4"/><circle cx="924" cy="348" r="1" fill="#d4d4d4"/><circle cx="924" cy="368" r="1" fill="#d4d4d4"/><circle cx="924" cy="388" r="1" fill="#d4d4d4"/><circle cx="944" cy="208" r="1" fill="#d4d4d4"/><circle cx="944" cy="228" r="1" fill="#d4d4d4"/><circle cx="944" cy="248" r="1" fill="#d4d4d4"/><circle cx="944" cy="268" r="1" fill="#d4d4d4"/><circle cx="944" cy="288" r="1" fill="#d4d4d4"/><circle cx="944" cy="308" r="1" fill="#d4d4d4"/><circle cx="944" cy="328" r="1" fill="#d4d4d4"/><circle cx="944" cy="348" r="1" fill="#d4d4d4"/><circle cx="944" cy="368" r="1" fill="#d4d4d4"/><circle cx="944" cy="388" r="1" fill="#d4d4d4"/><circle cx="964" cy="208" r="1" fill="#d4d4d4"/><circle cx="964" cy="228" r="1" fill="#d4d4d4"/><circle cx="964" cy="248" r="1" fill="#d4d4d4"/><circle cx="964" cy="268" r="1" fill="#d4d4d4"/><circle cx="964" cy="288" r="1" fill="#d4d4d4"/><circle cx="964" cy="308" r="1" fill="#d4d4d4"/><circle cx="964" cy="328" r="1" fill="#d4d4d4"/><circle cx="964" cy="348" r="1" fill="#d4d4d4"/><circle cx="964" cy="368" r="1" fill="#d4d4d4"/><circle cx="964" cy="388" r="1" fill="#d4d4d4"/><circle cx="984" cy="208" r="1" fill="#d4d4d4"/><circle cx="984" cy="228" r="1" fill="#d4d4d4"/><circle cx="984" cy="248" r="1" fill="#d4d4d4"/><circle cx="984" cy="268" r="1" fill="#d4d4d4"/><circle cx="984" cy="288" r="1" fill="#d4d4d4"/><circle cx="984" cy="308" r="1" fill="#d4d4d4"/><circle cx="984" cy="328" r="1" fill="#d4d4d4"/><circle cx="984" cy="348" r="1" fill="#d4d4d4"/><circle cx="984" cy="368" r="1" fill="#d4d4d4"/><circle cx="984" cy="388" r="1" fill="#d4d4d4"/><circle cx="1004" cy="208" r="1" fill="#d4d4d4"/><circle cx="1004" cy="228" r="1" fill="#d4d4d4"/><circle cx="1004" cy="248" r="1" fill="#d4d4d4"/><circle cx="1004" cy="268" r="1" fill="#d4d4d4"/><circle cx="1004" cy="288" r="1" fill="#d4d4d4"/><circle cx="1004" cy="308" r="1" fill="#d4d4d4"/><circle cx="1004" cy="328" r="1" fill="#d4d4d4"/><circle cx="1004" cy="348" r="1" fill="#d4d4d4"/><circle cx="1004" cy="368" r="1" fill="#d4d4d4"/><circle cx="1004" cy="388" r="1" fill="#d4d4d4"/><circle cx="1024" cy="208" r="1" fill="#d4d4d4"/><circle cx="1024" cy="228" r="1" fill="#d4d4d4"/><circle cx="1024" cy="248" r="1" fill="#d4d4d4"/><circle cx="1024" cy="268" r="1" fill="#d4d4d4"/><circle cx="1024" cy="288" r="1" fill="#d4d4d4"/><circle cx="1024" cy="308" r="1" fill="#d4d4d4"/><circle cx="1024" cy="328" r="1" fill="#d4d4d4"/><circle cx="1024" cy="348" r="1" fill="#d4d4d4"/><circle cx="1024" cy="368" r="1" fill="#d4d4d4"/><circle cx="1024" cy="388" r="1" fill="#d4d4d4"/><circle cx="1044" cy="208" r="1" fill="#d4d4d4"/><circle cx="1044" cy="228" r="1" fill="#d4d4d4"/><circle cx="1044" cy="248" r="1" fill="#d4d4d4"/><circle cx="1044" cy="268" r="1" fill="#d4d4d4"/><circle cx="1044" cy="288" r="1" fill="#d4d4d4"/><circle cx="1044" cy="308" r="1" fill="#d4d4d4"/><circle cx="1044" cy="328" r="1" fill="#d4d4d4"/><circle cx="1044" cy="348" r="1" fill="#d4d4d4"/><circle cx="1044" cy="368" r="1" fill="#d4d4d4"/><circle cx="1044" cy="388" r="1" fill="#d4d4d4"/><circle cx="1064" cy="208" r="1" fill="#d4d4d4"/><circle cx="1064" cy="228" r="1" fill="#d4d4d4"/><circle cx="1064" cy="248" r="1" fill="#d4d4d4"/><circle cx="1064" cy="268" r="1" fill="#d4d4d4"/><circle cx="1064" cy="288" r="1" fill="#d4d4d4"/><circle cx="1064" cy="308" r="1" fill="#d4d4d4"/><circle cx="1064" cy="328" r="1" fill="#d4d4d4"/><circle cx="1064" cy="348" r="1" fill="#d4d4d4"/><circle cx="1064" cy="368" r="1" fill="#d4d4d4"/><circle cx="1064" cy="388" r="1" fill="#d4d4d4"/><circle cx="1084" cy="208" r="1" fill="#d4d4d4"/><circle cx="1084" cy="228" r="1" fill="#d4d4d4"/><circle cx="1084" cy="248" r="1" fill="#d4d4d4"/><circle cx="1084" cy="268" r="1" fill="#d4d4d4"/><circle cx="1084" cy="288" r="1" fill="#d4d4d4"/><circle cx="1084" cy="308" r="1" fill="#d4d4d4"/><circle cx="1084" cy="328" r="1" fill="#d4d4d4"/><circle cx="1084" cy="348" r="1" fill="#d4d4d4"/><circle cx="1084" cy="368" r="1" fill="#d4d4d4"/><circle cx="1084" cy="388" r="1" fill="#d4d4d4"/><circle cx="1104" cy="208" r="1" fill="#d4d4d4"/><circle cx="1104" cy="228" r="1" fill="#d4d4d4"/><circle cx="1104" cy="248" r="1" fill="#d4d4d4"/><circle cx="1104" cy="268" r="1" fill="#d4d4d4"/><circle cx="1104" cy="288" r="1" fill="#d4d4d4"/><circle cx="1104" cy="308" r="1" fill="#d4d4d4"/><circle cx="1104" cy="328" r="1" fill="#d4d4d4"/><circle cx="1104" cy="348" r="1" fill="#d4d4d4"/><circle cx="1104" cy="368" r="1" fill="#d4d4d4"/><circle cx="1104" cy="388" r="1" fill="#d4d4d4"/><circle cx="1124" cy="208" r="1" fill="#d4d4d4"/><circle cx="1124" cy="228" r="1" fill="#d4d4d4"/><circle cx="1124" cy="248" r="1" fill="#d4d4d4"/><circle cx="1124" cy="268" r="1" fill="#d4d4d4"/><circle cx="1124" cy="288" r="1" fill="#d4d4d4"/><circle cx="1124" cy="308" r="1" fill="#d4d4d4"/><circle cx="1124" cy="328" r="1" fill="#d4d4d4"/><circle cx="1124" cy="348" r="1" fill="#d4d4d4"/><circle cx="1124" cy="368" r="1" fill="#d4d4d4"/><circle cx="1124" cy="388" r="1" fill="#d4d4d4"/><circle cx="1144" cy="208" r="1" fill="#d4d4d4"/><circle cx="1144" cy="228" r="1" fill="#d4d4d4"/><circle cx="1144" cy="248" r="1" fill="#d4d4d4"/><circle cx="1144" cy="268" r="1" fill="#d4d4d4"/><circle cx="1144" cy="288" r="1" fill="#d4d4d4"/><circle cx="1144" cy="308" r="1" fill="#d4d4d4"/><circle cx="1144" cy="328" r="1" fill="#d4d4d4"/><circle cx="1144" cy="348" r="1" fill="#d4d4d4"/><circle cx="1144" cy="368" r="1" fill="#d4d4d4"/><circle cx="1144" cy="388" r="1" fill="#d4d4d4"/><circle cx="1164" cy="208" r="1" fill="#d4d4d4"/><circle cx="1164" cy="228" r="1" fill="#d4d4d4"/><circle cx="1164" cy="248" r="1" fill="#d4d4d4"/><circle cx="1164" cy="268" r="1" fill="#d4d4d4"/><circle cx="1164" cy="288" r="1" fill="#d4d4d4"/><circle cx="1164" cy="308" r="1" fill="#d4d4d4"/><circle cx="1164" cy="328" r="1" fill="#d4d4d4"/><circle cx="1164" cy="348" r="1" fill="#d4d4d4"/><circle cx="1164" cy="368" r="1" fill="#d4d4d4"/><circle cx="1164" cy="388" r="1" fill="#d4d4d4"/><circle cx="1184" cy="208" r="1" fill="#d4d4d4"/><circle cx="1184" cy="228" r="1" fill="#d4d4d4"/><circle cx="1184" cy="248" r="1" fill="#d4d4d4"/><circle cx="1184" cy="268" r="1" fill="#d4d4d4"/><circle cx="1184" cy="288" r="1" fill="#d4d4d4"/><circle cx="1184" cy="308" r="1" fill="#d4d4d4"/><circle cx="1184" cy="328" r="1" fill="#d4d4d4"/><circle cx="1184" cy="348" r="1" fill="#d4d4d4"/><circle cx="1184" cy="368" r="1" fill="#d4d4d4"/><circle cx="1184" cy="388" r="1" fill="#d4d4d4"/><circle cx="1204" cy="208" r="1" fill="#d4d4d4"/><circle cx="1204" cy="228" r="1" fill="#d4d4d4"/><circle cx="1204" cy="248" r="1" fill="#d4d4d4"/><circle cx="1204" cy="268" r="1" fill="#d4d4d4"/><circle cx="1204" cy="288" r="1" fill="#d4d4d4"/><circle cx="1204" cy="308" r="1" fill="#d4d4d4"/><circle cx="1204" cy="328" r="1" fill="#d4d4d4"/><circle cx="1204" cy="348" r="1" fill="#d4d4d4"/><circle cx="1204" cy="368" r="1" fill="#d4d4d4"/><circle cx="1204" cy="388" r="1" fill="#d4d4d4"/><circle cx="1224" cy="208" r="1" fill="#d4d4d4"/><circle cx="1224" cy="228" r="1" fill="#d4d4d4"/><circle cx="1224" cy="248" r="1" fill="#d4d4d4"/><circle cx="1224" cy="268" r="1" fill="#d4d4d4"/><circle cx="1224" cy="288" r="1" fill="#d4d4d4"/><circle cx="1224" cy="308" r="1" fill="#d4d4d4"/><circle cx="1224" cy="328" r="1" fill="#d4d4d4"/><circle cx="1224" cy="348" r="1" fill="#d4d4d4"/><circle cx="1224" cy="368" r="1" fill="#d4d4d4"/><circle cx="1224" cy="388" r="1" fill="#d4d4d4"/><circle cx="1244" cy="208" r="1" fill="#d4d4d4"/><circle cx="1244" cy="228" r="1" fill="#d4d4d4"/><circle cx="1244" cy="248" r="1" fill="#d4d4d4"/><circle cx="1244" cy="268" r="1" fill="#d4d4d4"/><circle cx="1244" cy="288" r="1" fill="#d4d4d4"/><circle cx="1244" cy="308" r="1" fill="#d4d4d4"/><circle cx="1244" cy="328" r="1" fill="#d4d4d4"/><circle cx="1244" cy="348" r="1" fill="#d4d4d4"/><circle cx="1244" cy="368" r="1" fill="#d4d4d4"/><circle cx="1244" cy="388" r="1" fill="#d4d4d4"/><circle cx="835" cy="229" r="2" fill="#d4d4d4"/><circle cx="841" cy="229" r="2" fill="#d4d4d4"/><circle cx="852" cy="229" r="4" fill="#3d74c6"/><text x="862" y="233" font-family="Inter, -apple-system, system-ui, sans-serif" font-size="11" font-weight="600" fill="#737373" text-anchor="start" >Sources</text><rect x="830" y="240" width="130" height="60" fill="#ffffff" stroke="#e5e5e5" stroke-width="1" rx="10"/><rect x="842" y="252" width="97.52000000000001" height="6" fill="#e5e5e5" rx="5" /><rect x="842" y="264" width="65.72" height="6" fill="#e5e5e5" rx="5" /><circle cx="1015" cy="289" r="2" fill="#d4d4d4"/><circle cx="1021" cy="289" r="2" fill="#d4d4d4"/><circle cx="1032" cy="289" r="4" fill="#2f9e6b"/><text x="1042" y="293" font-family="Inter, -apple-system, system-ui, sans-serif" font-size="11" font-weight="600" fill="#737373" text-anchor="start" >Draft</text><rect x="1010" y="300" width="130" height="60" fill="#ffffff" stroke="#e5e5e5" stroke-width="1" rx="10"/><rect x="1022" y="312" width="97.52000000000001" height="6" fill="#e5e5e5" rx="5" /><rect x="1022" y="324" width="65.72" height="6" fill="#e5e5e5" rx="5" /><path d="M 960 270 C 1020 270, 950 330, 1010 330" stroke="#a3a3a3" stroke-width="1.5" fill="none"/></svg>