<svg xmlns="http://www.w3.org/2000/svg" width="1440" height="360" viewBox="0 0 1440 360">
<rect x="0" y="0" width="1440" height="360" fill="#fafafa" rx="0" />
<rect x="140" y="80" width="360" height="220" fill="#ffffff" stroke="#e5e5e5" stroke-width="1" rx="12"/><text x="164" y="116" font-family="Inter, -apple-system, system-ui, sans-serif" font-size="34" font-weight="700" fill="#d4d4d4" text-anchor="start" >“</text><rect x="164" y="140" width="287.04" height="9" fill="#e5e5e5" rx="5" /><rect x="164" y="158" width="312" height="9" fill="#e5e5e5" rx="5" /><rect x="164" y="176" width="193.44" height="9" fill="#e5e5e5" rx="5" /><circle cx="180" cy="252" r="16" fill="#e5e5e5"/><rect x="206" y="242" width="120" height="9" fill="#d4d4d4" rx="5" /><rect x="206" y="258" width="90" height="7" fill="#e5e5e5" rx="5" /><rect x="540" y="80" width="360" height="220" fill="#ffffff" stroke="#e5e5e5" stroke-width="1" rx="12"/><text x="564" y="116" font-family="Inter, -apple-system, system-ui, sans-serif" font-size="34" font-weight="700" fill="#d4d4d4" text-anchor="start" >“</text><rect x="564" y="140" width="287.04" height="9" fill="#e5e5e5" rx="5" /><rect x="564" y="158" width="312" height="9" fill="#e5e5e5" rx="5" /><rect x="564" y="176" width="193.44" height="9" fill="#e5e5e5" rx="5" /><circle cx="580" cy="252" r="16" fill="#e5e5e5"/><rect x="606" y="242" width="120" height="9" fill="#d4d4d4" rx="5" /><rect x="606" y="258" width="90" height="7" fill="#e5e5e5" rx="5" /><rect x="940" y="80" width="360" height="220" fill="#ffffff" stroke="#e5e5e5" stroke-width="1" rx="12"/><text x="964" y="116" font-family="Inter, -apple-system, system-ui, sans-serif" font-size="34" font-weight="700" fill="#d4d4d4" text-anchor="start" >“</text><rect x="964" y="140" width="287.04" height="9" fill="#e5e5e5" rx="5" /><rect x="964" y="158" width="312" height="9" fill="#e5e5e5" rx="5" /><rect x="964" y="176" width="193.44" height="9" fill="#e5e5e5" rx="5" /><circle cx="980" cy="252" r="16" fill="#e5e5e5"/><rect x="1006" y="242" width="120" height="9" fill="#d4d4d4" rx="5" /><rect x="1006" y="258" width="90" height="7" fill="#e5e5e5" rx="5" /></svg>