<svg xmlns="http://www.w3.org/2000/svg" width="1440" height="560" viewBox="0 0 1440 560">
<rect x="0" y="0" width="1440" height="560" fill="#ffffff" rx="0" />
<text x="720" y="70" font-family="Inter, -apple-system, system-ui, sans-serif" font-size="10" font-weight="700" fill="#019A99" text-anchor="middle" letter-spacing="2">PRICING</text><rect x="590" y="92" width="260" height="18" fill="#d4d4d4" rx="9" /><rect x="200" y="150" width="340" height="350" fill="#ffffff" stroke="#e5e5e5" stroke-width="1" rx="14"/><rect x="228" y="186" width="100" height="12" fill="#d4d4d4" rx="5" /><rect x="228" y="216" width="90" height="26" fill="#d4d4d4" rx="8" /><rect x="326" y="230" width="50" height="8" fill="#e5e5e5" rx="5" /><circle cx="236" cy="286" r="5" fill="#d4d4d4"/><rect x="252" y="281" width="200" height="8" fill="#e5e5e5" rx="5" /><circle cx="236" cy="316" r="5" fill="#d4d4d4"/><rect x="252" y="311" width="170" height="8" fill="#e5e5e5" rx="5" /><circle cx="236" cy="346" r="5" fill="#d4d4d4"/><rect x="252" y="341" width="200" height="8" fill="#e5e5e5" rx="5" /><circle cx="236" cy="376" r="5" fill="#d4d4d4"/><rect x="252" y="371" width="170" height="8" fill="#e5e5e5" rx="5" /><rect x="228" y="420" width="284" height="38" fill="#ffffff" stroke="#e5e5e5" stroke-width="1" rx="8"/><text x="370" y="444" font-family="Inter, -apple-system, system-ui, sans-serif" font-size="13" font-weight="500" fill="#171717" text-anchor="middle" >Get started</text><rect x="580" y="150" width="340" height="350" fill="#ffffff" stroke="#171717" stroke-width="2" rx="14"/><rect x="702" y="136" width="92.4" height="20" fill="#171717" rx="10" /><text x="748.2" y="149.5" font-family="Inter, -apple-system, system-ui, sans-serif" font-size="10" font-weight="600" fill="#ffffff" text-anchor="middle" >MOST POPULAR</text><rect x="608" y="186" width="100" height="12" fill="#d4d4d4" rx="5" /><rect x="608" y="216" width="90" height="26" fill="#019A99" rx="8" /><rect x="706" y="230" width="50" height="8" fill="#e5e5e5" rx="5" /><circle cx="616" cy="286" r="5" fill="#019A99"/><rect x="632" y="281" width="200" height="8" fill="#e5e5e5" rx="5" /><circle cx="616" cy="316" r="5" fill="#019A99"/><rect x="632" y="311" width="170" height="8" fill="#e5e5e5" rx="5" /><circle cx="616" cy="346" r="5" fill="#019A99"/><rect x="632" y="341" width="200" height="8" fill="#e5e5e5" rx="5" /><circle cx="616" cy="376" r="5" fill="#019A99"/><rect x="632" y="371" width="170" height="8" fill="#e5e5e5" rx="5" /><rect x="608" y="420" width="284" height="38" fill="#171717" rx="8" /><text x="750" y="444" font-family="Inter, -apple-system, system-ui, sans-serif" font-size="13" font-weight="600" fill="#ffffff" text-anchor="middle" >Start researching</text><rect x="960" y="150" width="340" height="350" fill="#ffffff" stroke="#e5e5e5" stroke-width="1" rx="14"/><rect x="988" y="186" width="100" height="12" fill="#d4d4d4" rx="5" /><rect x="988" y="216" width="90" height="26" fill="#d4d4d4" rx="8" /><rect x="1086" y="230" width="50" height="8" fill="#e5e5e5" rx="5" /><circle cx="996" cy="286" r="5" fill="#d4d4d4"/><rect x="1012" y="281" width="200" height="8" fill="#e5e5e5" rx="5" /><circle cx="996" cy="316" r="5" fill="#d4d4d4"/><rect x="1012" y="311" width="170" height="8" fill="#e5e5e5" rx="5" /><circle cx="996" cy="346" r="5" fill="#d4d4d4"/><rect x="1012" y="341" width="200" height="8" fill="#e5e5e5" rx="5" /><circle cx="996" cy="376" r="5" fill="#d4d4d4"/><rect x="1012" y="371" width="170" height="8" fill="#e5e5e5" rx="5" /><rect x="988" y="420" width="284" height="38" fill="#ffffff" stroke="#e5e5e5" stroke-width="1" rx="8"/><text x="1130" y="444" font-family="Inter, -apple-system, system-ui, sans-serif" font-size="13" font-weight="500" fill="#171717" text-anchor="middle" >Get started</text></svg>