<svg xmlns="http://www.w3.org/2000/svg" width="1440" height="440" viewBox="0 0 1440 440">
<rect x="0" y="0" width="1440" height="440" fill="#ffffff" rx="0" />
<text x="720" y="70" font-family="Inter, -apple-system, system-ui, sans-serif" font-size="10" font-weight="700" fill="#019A99" text-anchor="middle" letter-spacing="2">FAQ</text><rect x="320" y="110" width="800" height="60" fill="#ffffff" stroke="#e5e5e5" stroke-width="1" rx="10"/><rect x="348" y="136" width="300" height="10" fill="#d4d4d4" rx="5" /><path d="M 1080 136 l 12 0 m -6 -6 l 0 12" stroke="#a3a3a3" stroke-width="1.6"/><rect x="320" y="186" width="800" height="60" fill="#ffffff" stroke="#e5e5e5" stroke-width="1" rx="10"/><rect x="348" y="212" width="420" height="10" fill="#d4d4d4" rx="5" /><path d="M 1080 212 l 12 0 m -6 -6 l 0 12" stroke="#a3a3a3" stroke-width="1.6"/><rect x="320" y="262" width="800" height="60" fill="#ffffff" stroke="#e5e5e5" stroke-width="1" rx="10"/><rect x="348" y="288" width="300" height="10" fill="#d4d4d4" rx="5" /><path d="M 1080 288 l 12 0 m -6 -6 l 0 12" stroke="#a3a3a3" stroke-width="1.6"/><rect x="320" y="338" width="800" height="60" fill="#ffffff" stroke="#e5e5e5" stroke-width="1" rx="10"/><rect x="348" y="364" width="420" height="10" fill="#d4d4d4" rx="5" /><path d="M 1080 364 l 12 0 m -6 -6 l 0 12" stroke="#a3a3a3" stroke-width="1.6"/></svg>