<svg xmlns="http://www.w3.org/2000/svg" width="1440" height="280" viewBox="0 0 1440 280">
<rect x="0" y="0" width="1440" height="280" fill="#fafafa" rx="0" />
<line x1="0" y1="1" x2="1440" y2="1" stroke="#e5e5e5" stroke-width="1"/><circle cx="80" cy="66" r="14" fill="#e6f4f4"/><circle cx="75.52" cy="64.6" r="1.9600000000000002" fill="#019A99"/><circle cx="84.48" cy="64.6" r="1.9600000000000002" fill="#019A99"/><path d="M 75.8 71.32 Q 80 74.4 84.2 71.32" stroke="#019A99" stroke-width="2" fill="none" stroke-linecap="round"/><text x="102" y="71" font-family="Inter, -apple-system, system-ui, sans-serif" font-size="14" font-weight="700" fill="#019A99" text-anchor="start" >ProfJohns</text><rect x="80" y="96" width="202.4" height="8" fill="#e5e5e5" rx="5" /><rect x="80" y="112" width="136.4" height="8" fill="#e5e5e5" rx="5" /><rect x="480" y="60" width="70" height="9" fill="#d4d4d4" rx="5" /><rect x="480" y="88" width="100" height="7" fill="#e5e5e5" rx="5" /><rect x="480" y="112" width="130" height="7" fill="#e5e5e5" rx="5" /><rect x="480" y="136" width="100" height="7" fill="#e5e5e5" rx="5" /><rect x="480" y="160" width="130" height="7" fill="#e5e5e5" rx="5" /><rect x="720" y="60" width="70" height="9" fill="#d4d4d4" rx="5" /><rect x="720" y="88" width="100" height="7" fill="#e5e5e5" rx="5" /><rect x="720" y="112" width="130" height="7" fill="#e5e5e5" rx="5" /><rect x="720" y="136" width="100" height="7" fill="#e5e5e5" rx="5" /><rect x="720" y="160" width="130" height="7" fill="#e5e5e5" rx="5" /><rect x="960" y="60" width="70" height="9" fill="#d4d4d4" rx="5" /><rect x="960" y="88" width="100" height="7" fill="#e5e5e5" rx="5" /><rect x="960" y="112" width="130" height="7" fill="#e5e5e5" rx="5" /><rect x="960" y="136" width="100" height="7" fill="#e5e5e5" rx="5" /><rect x="960" y="160" width="130" height="7" fill="#e5e5e5" rx="5" /><rect x="1200" y="60" width="70" height="9" fill="#d4d4d4" rx="5" /><rect x="1200" y="88" width="100" height="7" fill="#e5e5e5" rx="5" /><rect x="1200" y="112" width="130" height="7" fill="#e5e5e5" rx="5" /><rect x="1200" y="136" width="100" height="7" fill="#e5e5e5" rx="5" /><rect x="1200" y="160" width="130" height="7" fill="#e5e5e5" rx="5" /><line x1="80" y1="220" x2="1360" y2="220" stroke="#e5e5e5" stroke-width="1"/><rect x="80" y="240" width="180" height="7" fill="#e5e5e5" rx="5" /><rect x="1180" y="240" width="180" height="7" fill="#e5e5e5" rx="5" /></svg>