<svg xmlns="http://www.w3.org/2000/svg" width="1440" height="420" viewBox="0 0 1440 420">
<rect x="0" y="0" width="1440" height="420" fill="#ffffff" rx="0" />
<text x="60" y="50" font-family="Inter, -apple-system, system-ui, sans-serif" font-size="10" font-weight="700" fill="#a3a3a3" text-anchor="start" letter-spacing="2">KIT ATOMS</text><rect x="60" y="80" width="161.8" height="38" fill="#171717" rx="8" /><text x="140.9" y="104" font-family="Inter, -apple-system, system-ui, sans-serif" font-size="13" font-weight="600" fill="#ffffff" text-anchor="middle" >Start researching</text><rect x="240" y="80" width="154.4" height="38" fill="#ffffff" stroke="#e5e5e5" stroke-width="1" rx="8"/><text x="317.2" y="104" font-family="Inter, -apple-system, system-ui, sans-serif" font-size="13" font-weight="500" fill="#171717" text-anchor="middle" >See how it works</text><rect x="430" y="89" width="86.2" height="20" fill="#e7f5ee" rx="10" /><text x="473.1" y="102.5" font-family="Inter, -apple-system, system-ui, sans-serif" font-size="10" font-weight="600" fill="#2f9e6b" text-anchor="middle" >OPEN ACCESS</text><rect x="540" y="89" width="67.6" height="20" fill="#f4f4f5" rx="10" /><text x="573.8" y="102.5" font-family="Inter, -apple-system, system-ui, sans-serif" font-size="10" font-weight="600" fill="#737373" text-anchor="middle" >Built-in</text><rect x="640" y="91" width="31.200000000000003" height="16" fill="#e6f4f4" rx="4" /><text x="655.6" y="102.5" font-family="Inter, -apple-system, system-ui, sans-serif" font-size="9.5" font-weight="600" fill="#019A99" text-anchor="middle" >[1]</text><rect x="680" y="91" width="37.6" height="16" fill="#e6f4f4" rx="4" /><text x="698.8" y="102.5" font-family="Inter, -apple-system, system-ui, sans-serif" font-size="9.5" font-weight="600" fill="#019A99" text-anchor="middle" >[12]</text><circle cx="65" cy="169" r="2" fill="#d4d4d4"/><circle cx="71" cy="169" r="2" fill="#d4d4d4"/><circle cx="82" cy="169" r="4" fill="#3d74c6"/><text x="92" y="173" font-family="Inter, -apple-system, system-ui, sans-serif" font-size="11" font-weight="600" fill="#737373" text-anchor="start" >Sources</text><rect x="60" y="180" width="200" height="90" fill="#ffffff" stroke="#e5e5e5" stroke-width="1" rx="10"/><rect x="72" y="192" width="161.92000000000002" height="7" fill="#e5e5e5" rx="5" /><rect x="72" y="207" width="176" height="7" fill="#e5e5e5" rx="5" /><rect x="72" y="222" width="109.12" height="7" fill="#e5e5e5" rx="5" /><circle cx="325" cy="169" r="2" fill="#d4d4d4"/><circle cx="331" cy="169" r="2" fill="#d4d4d4"/><circle cx="342" cy="169" r="4" fill="#8a5cd6"/><text x="352" y="173" font-family="Inter, -apple-system, system-ui, sans-serif" font-size="11" font-weight="600" fill="#737373" text-anchor="start" >Synthesize</text><rect x="320" y="180" width="200" height="90" fill="#ffffff" stroke="#e5e5e5" stroke-width="1" rx="10"/><rect x="332" y="192" width="161.92000000000002" height="7" fill="#e5e5e5" rx="5" /><rect x="332" y="207" width="176" height="7" fill="#e5e5e5" rx="5" /><rect x="332" y="222" width="109.12" height="7" fill="#e5e5e5" rx="5" /><circle cx="585" cy="169" r="2" fill="#d4d4d4"/><circle cx="591" cy="169" r="2" fill="#d4d4d4"/><circle cx="602" cy="169" r="4" fill="#2f9e6b"/><text x="612" y="173" font-family="Inter, -apple-system, system-ui, sans-serif" font-size="11" font-weight="600" fill="#737373" text-anchor="start" >Draft</text><rect x="580" y="180" width="200" height="90" fill="#ffffff" stroke="#e5e5e5" stroke-width="1" rx="10"/><rect x="592" y="192" width="161.92000000000002" height="7" fill="#e5e5e5" rx="5" /><rect x="592" y="207" width="176" height="7" fill="#e5e5e5" rx="5" /><rect x="592" y="222" width="109.12" height="7" fill="#e5e5e5" rx="5" /><path d="M 260 225 C 320 225, 260 225, 320 225" stroke="#a3a3a3" stroke-width="1.5" fill="none"/><path d="M 520 225 C 580 225, 520 225, 580 225" stroke="#a3a3a3" stroke-width="1.5" fill="none"/><rect x="880" y="180" width="220" height="26" fill="#d4d4d4" rx="13" /><rect x="880" y="220" width="220" height="14" fill="#d4d4d4" rx="7" /><rect x="880" y="248" width="220" height="9" fill="#e5e5e5" rx="5" /><rect x="880" y="272" width="202.4" height="8" fill="#e5e5e5" rx="5" /><rect x="880" y="288" width="220" height="8" fill="#e5e5e5" rx="5" /><rect x="880" y="304" width="136.4" height="8" fill="#e5e5e5" rx="5" /><text x="60" y="330" font-family="Inter, -apple-system, system-ui, sans-serif" font-size="11" font-weight="500" fill="#737373" text-anchor="start" >Ink #171717</text><rect x="60" y="340" width="40" height="24" fill="#171717" rx="6" /><text x="130" y="330" font-family="Inter, -apple-system, system-ui, sans-serif" font-size="11" font-weight="500" fill="#737373" text-anchor="start" >Teal #019A99</text><rect x="130" y="340" width="40" height="24" fill="#019A99" rx="6" /><text x="200" y="330" font-family="Inter, -apple-system, system-ui, sans-serif" font-size="11" font-weight="500" fill="#737373" text-anchor="start" >Canvas #f5f5f5</text><rect x="200" y="340" width="40" height="24" fill="#f5f5f5" rx="6" stroke="#e5e5e5"/></svg>