<svg version="1.1" xmlns="http://www.w3.org/2000/svg" style="display: block;" viewBox="0 0 2048 2048" width="1024" height="1024" preserveAspectRatio="none">
<path transform="translate(0,0)" fill="rgb(3,156,154)" d="M 973.932 594.414 C 1009.93 590.022 1072.35 602.612 1107.82 609.786 C 1139.32 616.159 1130.09 622.134 1166.43 614.64 C 1190.21 609.737 1233.64 606.624 1255.95 615.075 C 1284.54 625.905 1286.49 654.457 1276.64 679.869 C 1315.38 690.779 1359.74 707.313 1385.42 739.294 C 1406.8 765.92 1418.41 797.034 1387.16 821.7 C 1398.19 839.108 1404.27 861.324 1412.24 880.418 C 1418.41 896.213 1428.86 912.1 1427.16 929.758 C 1424.78 954.528 1394.01 967.885 1371.83 965.36 C 1372.45 1006.44 1368.95 1046.97 1335.33 1074.92 C 1334.71 1094.81 1331.21 1116.36 1326.37 1135.72 C 1332.2 1142.33 1336.18 1147.26 1340.18 1155.12 C 1359.6 1193.31 1353.74 1244.88 1323.05 1275.59 C 1313.45 1285.2 1304.88 1289.95 1292.94 1296.09 C 1285.23 1315.15 1278.39 1329.11 1265.48 1345.46 C 1226.08 1395.4 1143.63 1412.39 1083 1419.2 C 1037.06 1425.46 973.048 1417.76 928.311 1406.94 C 867.055 1392.54 811.369 1366.99 759.598 1331.44 C 723.484 1306.64 701.912 1288.92 678.658 1250.88 C 636.475 1238.99 627.452 1200.61 620.547 1162.26 C 594.236 1137.41 581.451 1117.23 578.809 1079.13 C 577.048 1053.73 587.146 1023.48 604.72 1004.63 C 601.846 990.376 600.33 975.887 600.191 961.352 C 599.536 918.921 617.256 831.573 633.196 791.561 C 656.01 734.297 736.181 684.635 798.778 684.189 C 806.494 661.519 824.224 633.327 846.48 622.723 C 858.456 616.493 871.927 615.218 884.653 611.629 C 915.053 603.056 942.407 597.461 973.932 594.414 z M 825.631 971.535 C 815.876 1010.2 807.498 1050.51 791.685 1087.22 C 781.65 1110.52 741.551 1110.35 731.21 1089.89 C 719.398 1066.52 726.083 1030.4 715.139 1006.44 C 713.361 1002.53 704.918 998.842 700.576 997.615 C 681.366 992.316 660.836 994.91 643.548 1004.82 C 625.332 1015.29 612.509 1031.48 607.108 1051.83 C 601.017 1074.2 604.092 1098.07 615.65 1118.16 C 630.438 1143.69 661.765 1163.6 691.558 1163.73 C 702.086 1163.77 725.217 1156.44 720.557 1176.93 C 718.405 1186.39 697.17 1187.52 689.204 1188.53 C 692.022 1205.73 693.501 1220.91 701.084 1237.19 C 714.008 1264.94 739.388 1285.2 763.719 1302.69 C 785.924 1318.69 809.364 1332.9 833.818 1345.19 C 844.125 1350.4 855.501 1355.06 865.22 1360 C 897.288 1371.6 930.567 1382.46 964.169 1388.43 C 1042.35 1402.31 1127.98 1395.55 1200.88 1363.08 C 1285.64 1325.32 1285.96 1215.34 1302.97 1137.51 C 1318.66 1065.79 1313.3 1009.06 1299.44 938.436 C 1275.4 920.144 1247.86 896.48 1233.75 869.235 C 1191.18 864.544 1148.75 852.345 1108.37 838.329 C 1101.97 836.106 1071.33 842.355 1062.85 841.578 C 1028.32 843.158 980.373 842.316 947.282 833.424 C 936.693 869.468 890.403 921.903 861.173 945.679 C 849.882 954.864 837.774 963.368 825.631 971.535 z M 823.334 688.157 C 840.611 699.545 829.134 712.305 815.672 710.506 C 769.997 704.23 728.121 726.218 693.954 754.851 C 661.831 781.772 652.738 805.414 643.853 844.949 C 632.32 896.268 623.176 933.474 625.839 986.304 C 652.093 969.121 670.69 967.572 700.92 972.068 C 758.09 980.57 741.297 1036.82 752.755 1077.64 C 753.235 1079.36 764.537 1080.22 766.299 1080.33 C 779.5 1056.42 787.995 1013.65 795.802 986.244 C 798.415 977.071 800.607 965.139 804.043 956.362 C 818.022 944.587 834.656 936.722 849.544 922.565 C 878.681 894.859 916.001 855.478 926.558 815.57 C 928.614 807.8 920.572 791.81 915.399 785.67 C 897.487 768.677 873.166 761.025 856.762 741.318 C 853.384 738.377 844.194 729.513 845.983 724.451 C 855.605 697.224 882.26 734.518 892.923 740.693 C 926.17 759.948 946.13 770.901 952.361 811.13 C 1043.05 825.534 1109.73 812.703 1199.85 801.609 L 1247.42 795.764 C 1256.76 794.617 1266.7 792.705 1276.12 793.024 C 1279.93 793.153 1283.18 794.07 1285.52 797.344 C 1287.07 799.519 1287.82 802.538 1287.29 805.181 C 1286.76 807.86 1284.44 811.304 1282.08 812.675 C 1273.71 817.536 1167.13 829.4 1150.77 830.745 C 1174.26 834.642 1202.8 841.016 1226.78 845.841 C 1259.93 848.256 1252.02 858.376 1270.99 880.001 C 1296.42 908.985 1334.65 935.104 1373.34 941.064 C 1385.23 942.936 1397.38 936.896 1403.01 926.335 C 1402.68 918.252 1394.17 901.281 1390.35 892.365 C 1379.74 867.788 1372.33 839.066 1355.12 818.158 C 1348.47 810.086 1327.36 804.867 1319.4 798.778 C 1311.47 792.705 1317.84 778.914 1328.6 780.341 C 1345.8 782.618 1362.45 790.277 1374.36 802.9 C 1377.23 798.565 1379.44 795.454 1381.68 790.716 C 1378.81 768.256 1366.12 751.92 1348.59 738.309 C 1323.92 719.155 1279.13 701.812 1247.86 697.638 C 1234.48 695.851 1221.14 696.158 1207.77 697.882 C 1189.65 700.219 1171.51 704.797 1153.92 709.658 C 1127.61 716.924 974.31 767.332 958.438 755.773 C 956.07 754.048 955.022 751.071 954.958 748.232 C 954.887 745.022 955.983 742.236 958.337 740.009 C 966.312 732.462 993.369 729.979 1004.76 727.042 C 1029.14 720.757 1053.41 714.408 1077.5 707.066 C 1112.24 696.478 1146.71 684.692 1182.43 677.712 C 1202.63 673.766 1222.91 671.903 1243.49 673.34 C 1246.53 673.571 1249.57 673.899 1252.59 674.323 C 1255.75 665.809 1260.18 655.407 1256.05 646.467 C 1253.76 641.522 1249.68 638.622 1244.6 636.984 C 1201.01 622.923 1010.88 669.023 959.301 682.086 C 941.855 686.505 919.813 695.512 903.269 698.282 C 898.121 699.144 893.352 699.549 889.273 695.767 C 885.104 686.156 896.457 676.489 904.608 674.008 C 964.414 655.803 1026.26 639.239 1088.14 630.193 C 1056.44 625.053 1013.95 617.317 982.612 618.403 C 947.756 620.643 922.925 628.365 889.784 636.45 C 848.009 646.641 844.783 649.3 823.334 688.157 z M 1340.01 1029.31 C 1348.31 1002.12 1349.15 988.543 1349.09 960.371 C 1340.72 958.313 1332.9 955.03 1325.01 951.563 C 1333.08 977.991 1335.69 1013.34 1334.93 1040.65 C 1337.18 1036.29 1338.35 1033.9 1340.01 1029.31 z M 665.964 1184.22 C 658.739 1182.88 653.563 1180.62 646.738 1177.98 C 652.209 1193.98 657.705 1212.35 671.42 1223.29 C 667.879 1211.72 666.132 1196.34 665.964 1184.22 z M 1319.89 1168.53 C 1316.2 1200.18 1310.02 1231.5 1301.41 1262.18 L 1302.1 1262.6 L 1304.5 1260.29 C 1321.6 1241.52 1327.52 1222.42 1326.79 1196.81 C 1326.62 1190.88 1323.91 1172.17 1319.89 1168.53 z"/>
<path transform="translate(0,0)" fill="rgb(3,156,154)" d="M 1007.69 1054.69 C 1036.41 1050.97 1062.74 1071.17 1066.58 1099.88 C 1070.42 1128.59 1050.32 1155 1021.62 1158.95 C 992.768 1162.93 966.177 1142.69 962.317 1113.82 C 958.458 1084.95 978.801 1058.44 1007.69 1054.69 z"/>
<path transform="translate(0,0)" fill="rgb(3,156,154)" d="M 1247.56 1111.29 C 1293.6 1105.52 1307.51 1194.61 1253.22 1204.86 C 1201.57 1209.8 1195.32 1118.53 1247.56 1111.29 z"/>
<path transform="translate(0,0)" fill="rgb(3,156,154)" d="M 1008.97 964.5 C 1032.74 963.969 1052.38 964.396 1075.97 966.797 C 1102.84 969.533 1095.35 992.361 1083.81 992.366 C 1069.92 992.371 1046.79 989.93 1031.66 989.416 C 1007 989.525 984.331 992.11 959.962 994.739 C 950.565 995.752 943.489 981.512 950.177 976.306 C 964.062 965.498 991.596 965.33 1008.97 964.5 z"/>
<path transform="translate(0,0)" fill="rgb(3,156,154)" d="M 1248.6 1006.02 C 1273.19 1004.81 1326.29 1046.14 1298.25 1065.86 C 1286.89 1063.91 1275.89 1041.36 1263.31 1036.65 C 1248.87 1031.25 1226.17 1021.54 1248.6 1006.02 z"/>
<path transform="translate(0,0)" fill="rgb(3,156,154)" d="M 1154.98 1155.12 C 1159.98 1154.62 1164.26 1154.2 1167.82 1158.69 C 1176.1 1169.15 1178.11 1186.53 1177.34 1199.51 C 1176.85 1207.63 1174.38 1212.27 1168.26 1217.04 C 1144.69 1225.15 1154.65 1198.47 1153.9 1187.98 C 1152.94 1174.77 1142.2 1166.01 1154.98 1155.12 z"/>
<path transform="translate(0,0)" fill="rgb(3,156,154)" d="M 1100.75 1252.94 C 1109.84 1252.69 1110.29 1255.79 1118.15 1261.45 C 1125.3 1267.81 1133.71 1264.72 1142.21 1263.29 C 1158.19 1260.6 1162.41 1271.51 1149.99 1282.14 C 1126.22 1294.62 1077.18 1274.49 1100.75 1252.94 z"/>
<path transform="translate(0,0)" fill="rgb(3,156,154)" d="M 880.183 789.111 C 880.655 789.059 881.127 789.006 881.6 788.953 C 886.3 788.418 889.698 789.275 893.186 792.399 C 895.089 794.103 896.193 798.914 895.595 800.666 C 889.47 818.6 830.329 900.42 820.378 907.275 C 813.304 908.52 804.942 906.723 804.69 897.447 C 804.603 894.253 806.607 890.564 808.338 887.896 C 818.769 871.817 830.87 856.758 841.846 841.041 C 850.419 829.551 870.919 797.268 880.183 789.111 z"/>
</svg>